<svg width="24" height="24" viewBox="0 0 24 24" fill="none" xmlns="http://www.w3.org/2000/svg">
<path d="M6.32507 7.31686C6.16673 7.31686 6.00007 7.2502 5.8834 7.13353C5.64173 6.89186 5.64173 6.49186 5.8834 6.2502L8.9084 3.2252C9.15007 2.98353 9.55007 2.98353 9.79173 3.2252C10.0334 3.46686 10.0334 3.86686 9.79173 4.10853L6.76673 7.13353C6.64173 7.2502 6.4834 7.31686 6.32507 7.31686Z" fill="#202B21"/>
<path d="M17.6753 7.31686C17.5169 7.31686 17.3586 7.25853 17.2336 7.13353L14.2086 4.10853C13.9669 3.86686 13.9669 3.46686 14.2086 3.2252C14.4503 2.98353 14.8503 2.98353 15.0919 3.2252L18.1169 6.2502C18.3586 6.49186 18.3586 6.89186 18.1169 7.13353C18.0003 7.2502 17.8336 7.31686 17.6753 7.31686Z" fill="#202B21"/>
<path d="M18.842 10.8333C18.7837 10.8333 18.7253 10.8333 18.667 10.8333H18.4753H5.33366C4.75033 10.8417 4.08366 10.8417 3.60033 10.3583C3.21699 9.98333 3.04199 9.4 3.04199 8.54167C3.04199 6.25 4.71699 6.25 5.51699 6.25H18.4837C19.2837 6.25 20.9587 6.25 20.9587 8.54167C20.9587 9.40833 20.7837 9.98333 20.4003 10.3583C19.967 10.7917 19.3837 10.8333 18.842 10.8333ZM5.51699 9.58333H18.6753C19.0503 9.59167 19.4003 9.59167 19.517 9.475C19.5753 9.41667 19.7003 9.21667 19.7003 8.54167C19.7003 7.6 19.467 7.5 18.4753 7.5H5.51699C4.52533 7.5 4.29199 7.6 4.29199 8.54167C4.29199 9.21667 4.42533 9.41667 4.47533 9.475C4.59199 9.58333 4.95033 9.58333 5.31699 9.58333H5.51699Z" fill="#202B21"/>
<path d="M10.1338 17.2498C9.79212 17.2498 9.50879 16.9665 9.50879 16.6248V13.6665C9.50879 13.3248 9.79212 13.0415 10.1338 13.0415C10.4755 13.0415 10.7588 13.3248 10.7588 13.6665V16.6248C10.7588 16.9748 10.4755 17.2498 10.1338 17.2498Z" fill="#202B21"/>
<path d="M13.9668 17.2498C13.6251 17.2498 13.3418 16.9665 13.3418 16.6248V13.6665C13.3418 13.3248 13.6251 13.0415 13.9668 13.0415C14.3085 13.0415 14.5918 13.3248 14.5918 13.6665V16.6248C14.5918 16.9748 14.3085 17.2498 13.9668 17.2498Z" fill="#202B21"/>
<path d="M14.4083 20.9581H9.38329C6.39996 20.9581 5.73329 19.1831 5.47496 17.6415L4.29996 10.4331C4.24162 10.0915 4.47496 9.7748 4.81662 9.71646C5.15829 9.65813 5.47496 9.89146 5.53329 10.2331L6.70829 17.4331C6.94996 18.9081 7.44996 19.7081 9.38329 19.7081H14.4083C16.55 19.7081 16.7916 18.9581 17.0666 17.5081L18.4666 10.2165C18.5333 9.87479 18.8583 9.6498 19.2 9.7248C19.5416 9.79146 19.7583 10.1165 19.6916 10.4581L18.2916 17.7498C17.9666 19.4415 17.425 20.9581 14.4083 20.9581Z" fill="#202B21"/>
</svg>
