<svg width="20" height="20" viewBox="0 0 20 20" fill="none" xmlns="http://www.w3.org/2000/svg">
    <path d="M4.32507 5.31686C4.16673 5.31686 4.00007 5.2502 3.8834 5.13353C3.64173 4.89186 3.64173 4.49186 3.8834 4.2502L6.9084 1.2252C7.15007 0.983529 7.55007 0.983529 7.79173 1.2252C8.0334 1.46686 8.0334 1.86686 7.79173 2.10853L4.76673 5.13353C4.64173 5.2502 4.4834 5.31686 4.32507 5.31686Z" fill="#202B21"/>
    <path d="M15.6753 5.31686C15.5169 5.31686 15.3586 5.25853 15.2336 5.13353L12.2086 2.10853C11.9669 1.86686 11.9669 1.46686 12.2086 1.2252C12.4503 0.983529 12.8503 0.983529 13.0919 1.2252L16.1169 4.2502C16.3586 4.49186 16.3586 4.89186 16.1169 5.13353C16.0003 5.2502 15.8336 5.31686 15.6753 5.31686Z" fill="#202B21"/>
    <path d="M16.842 8.83333C16.7837 8.83333 16.7253 8.83333 16.667 8.83333H16.4753H3.33366C2.75033 8.84167 2.08366 8.84167 1.60033 8.35833C1.21699 7.98333 1.04199 7.4 1.04199 6.54167C1.04199 4.25 2.71699 4.25 3.51699 4.25H16.4837C17.2837 4.25 18.9587 4.25 18.9587 6.54167C18.9587 7.40833 18.7837 7.98333 18.4003 8.35833C17.967 8.79167 17.3837 8.83333 16.842 8.83333ZM3.51699 7.58333H16.6753C17.0503 7.59167 17.4003 7.59167 17.517 7.475C17.5753 7.41667 17.7003 7.21667 17.7003 6.54167C17.7003 5.6 17.467 5.5 16.4753 5.5H3.51699C2.52533 5.5 2.29199 5.6 2.29199 6.54167C2.29199 7.21667 2.42533 7.41667 2.47533 7.475C2.59199 7.58333 2.95033 7.58333 3.31699 7.58333H3.51699Z" fill="#202B21"/>
    <path d="M8.13379 15.2498C7.79212 15.2498 7.50879 14.9665 7.50879 14.6248V11.6665C7.50879 11.3248 7.79212 11.0415 8.13379 11.0415C8.47546 11.0415 8.75879 11.3248 8.75879 11.6665V14.6248C8.75879 14.9748 8.47546 15.2498 8.13379 15.2498Z" fill="#202B21"/>
    <path d="M11.9668 15.2498C11.6251 15.2498 11.3418 14.9665 11.3418 14.6248V11.6665C11.3418 11.3248 11.6251 11.0415 11.9668 11.0415C12.3085 11.0415 12.5918 11.3248 12.5918 11.6665V14.6248C12.5918 14.9748 12.3085 15.2498 11.9668 15.2498Z" fill="#202B21"/>
    <path d="M12.4083 18.9581H7.38329C4.39996 18.9581 3.73329 17.1831 3.47496 15.6415L2.29996 8.43313C2.24162 8.09146 2.47496 7.7748 2.81662 7.71646C3.15829 7.65813 3.47496 7.89146 3.53329 8.23313L4.70829 15.4331C4.94996 16.9081 5.44996 17.7081 7.38329 17.7081H12.4083C14.55 17.7081 14.7916 16.9581 15.0666 15.5081L16.4666 8.21646C16.5333 7.87479 16.8583 7.6498 17.2 7.7248C17.5416 7.79146 17.7583 8.11646 17.6916 8.45813L16.2916 15.7498C15.9666 17.4415 15.425 18.9581 12.4083 18.9581Z" fill="#202B21"/>
</svg>
