<svg version="1.1" id="Слой_1"
	 xmlns="http://www.w3.org/2000/svg" xmlns:xlink="http://www.w3.org/1999/xlink" x="0px" y="0px" width="364.5px" height="326.4px"
	 viewBox="0 0 364.5 326.4" style="enable-background:new 0 0 364.5 326.4;" xml:space="preserve">
<g>
	<path class="st0" d="M279.2,326.4c-7,0-13.9-1.9-20.4-5.5c-0.5-0.3-1.1-0.5-1.7-0.5h-17.5c-0.4,0-0.8,0-1.2-0.1c-0.2,0-0.3,0-0.5,0
		l-8.9,0c-8.3,0-17.1,0-25.5,0l-1.5,0c-7.4,0-14.4,0-20.5,0c-3.4,0-9.4,0-9.4,0c-0.5,0-0.9,0.1-1.3,0.3c-2.4,1-5.1,1.5-7.9,1.5
		c-3.2,0-6.3-0.6-8.3-1.1c-0.1,0-0.1,0-0.2,0c-0.2,0-0.4-0.1-0.5-0.1L23.2,292.2c-9-2-15.5-9.4-16.2-18.6c0,0-7-90.1-7-90.7
		c-0.3-5.1,1.5-9.9,5.1-13.3c3-2.8,7-4.4,11.3-4.4c0.8,0,1.5,0,2.3,0.1l91,11.5c0.1,0,0.3,0,0.4,0c1.2,0,2.3-0.6,2.9-1.6
		c5.3-8.1,11.6-13.8,19.8-17.9c0.8-0.4,1.5-1.2,1.8-2c0.3-0.9,0.2-1.9-0.2-2.7l-0.4-0.8c-0.3-0.5-0.6-1.1-0.8-1.6
		c-3.9-7.8-7.1-15.5-9.6-22.8c-0.3-0.8-0.8-1.5-1.6-1.9c-13.3-7.6-21.5-21.8-21.5-37.1c0-10.4,3.8-20.4,10.7-28.3
		c0.5-0.6,0.8-1.3,0.9-2.1c0.3-4.3,3.8-7.7,8.1-7.7h2.7c0.5,0,1.1-0.1,1.5-0.4c1-0.5,2-0.9,3.1-1.4c1-0.4,1.8-1.2,2.1-2.3
		c0.3-1,0.1-2.1-0.5-3c-2.3-3.2-2.4-7.5-0.4-10.8c1.5-2.4,3.4-4.5,5.6-6.2c0.7-0.6,1.2-1.4,1.3-2.3c0.3-2.5,1.6-4.7,3.5-6.2
		c5.6-4.6,12.6-7.2,20.3-7.5c1.3-0.1,2.5-0.9,3.1-2.1c0.7-1.5,1.6-2.9,2.6-4.2c1.8-2.1,4.3-3.3,7-3.4c0,0,0.3,0,0.4,0
		c2.6,0,5,1,6.9,2.8c2.5,2.4,6,4.4,10.3,5.7c0.3,0.1,0.7,0.2,1,0.2c0.9,0,1.8-0.4,2.5-1c1.4-1.4,3.1-2.3,5-2.7
		c0.6-0.1,1.3-0.2,1.9-0.2c2.2,0,4.4,0.8,6.1,2.2c0.2,0.1,0.3,0.3,0.5,0.4c2.3,1.3,8.4,3.3,15.5,5.6l0.5,0.2
		c2.1,0.7,4.3,1.4,6.5,2.1c30.4,10.2,55,31.2,71,60.7c11.8,21.8,19,48.8,19.6,74.1c0,1.4,0.9,2.6,2.1,3.1c4.6,1.9,9,4.6,13.1,8
		c14.3,11.6,21.4,32.9,18.2,54.3c-2.8,18.5-3.8,24.6-5.2,32.3c-0.5,2.7-2.8,11.9-10,15.4c-0.9,0.4-1.6,1.2-1.8,2.2
		c-0.6,2.1-1.2,4.2-1.9,6.2c-0.1,0.3-0.1,0.6-0.2,0.8c-0.9,15.1-3.6,28.6-8.4,42.3c-1.4,3.9-5.1,6.5-9.2,6.5c-1.1,0-2.2-0.2-3.2-0.6
		c-0.5-0.2-1-0.4-1.4-0.6c-0.5-0.3-1.1-0.4-1.7-0.4h-7.3c-0.6,0-1.2,0.2-1.7,0.4c-6.3,3.5-13.3,5.4-20.7,5.7
		C280.1,326.4,279.7,326.4,279.2,326.4L279.2,326.4z"/>
	<path class="st1" d="M110.5,142.7l1-2.6l2.6,1l-1,2.6L110.5,142.7z M112.5,139.4l2.1-7.1l1.3-3.2l2.8,1.1l-1.3,3.2L114,140
		L112.5,139.4z M117.2,141.4l1-2.4l9.4,3.8l-1,2.4L117.2,141.4z M118.8,137.3l1-2.4l9.4,3.8l-1,2.4L118.8,137.3z M185,60.6l-7.9-1.7
		l-0.3-1.8l6.7-4.6l0.4,2.1l-4.7,3l5.5,1L185,60.6z M186.9,50.4l0.8,3.9c0.5-0.9,1.2-1.4,2.1-1.6c0.5-0.1,0.9-0.1,1.3,0
		c0.4,0.1,0.7,0.3,1,0.5c0.2,0.2,0.4,0.5,0.6,0.8c0.1,0.3,0.3,0.8,0.4,1.5l0.9,4.5l-2,0.4l-0.8-4.1c-0.2-0.8-0.3-1.3-0.4-1.5
		c-0.1-0.2-0.3-0.3-0.5-0.4c-0.2-0.1-0.5-0.1-0.8,0c-0.3,0.1-0.6,0.2-0.9,0.4c-0.2,0.2-0.4,0.5-0.4,0.9c-0.1,0.4,0,0.9,0.1,1.5
		l0.8,3.9l-2,0.4l-2.1-10.6L186.9,50.4z M200,56.3l2.1-0.1c-0.1,0.8-0.4,1.4-0.9,1.9c-0.5,0.5-1.2,0.8-2,1c-1.3,0.3-2.4,0-3.2-0.7
		c-0.6-0.6-1.1-1.4-1.3-2.5c-0.3-1.3-0.1-2.3,0.4-3.2c0.5-0.9,1.3-1.4,2.3-1.6c1.1-0.2,2.1,0,2.9,0.6c0.8,0.6,1.4,1.7,1.6,3.3
		l-5.1,1c0.1,0.6,0.4,1,0.8,1.3c0.4,0.3,0.8,0.4,1.3,0.3c0.3-0.1,0.6-0.2,0.8-0.4C199.9,57.1,200,56.8,200,56.3z M199.7,54.3
		c-0.1-0.6-0.4-1-0.7-1.3c-0.4-0.3-0.7-0.3-1.2-0.3c-0.4,0.1-0.8,0.3-1,0.7c-0.2,0.4-0.3,0.9-0.2,1.4L199.7,54.3z M204.8,52.4
		l-1.9,0c0.1-0.8,0.3-1.4,0.7-1.9c0.4-0.5,1.2-0.8,2.2-1c0.9-0.2,1.6-0.2,2.1-0.1c0.5,0.1,0.9,0.3,1.1,0.6c0.2,0.3,0.5,0.9,0.6,1.8
		l0.5,2.4c0.1,0.7,0.3,1.2,0.4,1.5c0.1,0.3,0.3,0.6,0.6,1l-2,0.4c-0.1-0.1-0.2-0.3-0.3-0.6c-0.1-0.1-0.1-0.2-0.1-0.2
		c-0.3,0.4-0.6,0.7-1,1c-0.4,0.2-0.8,0.4-1.2,0.5c-0.8,0.2-1.5,0.1-2-0.3c-0.5-0.3-0.9-0.8-1-1.5c-0.1-0.4-0.1-0.8,0.1-1.2
		c0.1-0.4,0.4-0.7,0.7-1c0.3-0.3,0.8-0.5,1.5-0.8c0.9-0.4,1.5-0.7,1.9-0.9l0-0.2c-0.1-0.4-0.2-0.7-0.5-0.8c-0.2-0.1-0.6-0.1-1.1,0
		c-0.4,0.1-0.6,0.2-0.8,0.4C204.9,51.7,204.8,52,204.8,52.4z M207.8,53.5c-0.2,0.1-0.6,0.3-1.2,0.6c-0.5,0.2-0.9,0.4-1,0.6
		c-0.2,0.2-0.3,0.5-0.3,0.8c0.1,0.3,0.2,0.5,0.5,0.7c0.3,0.2,0.5,0.2,0.9,0.2c0.4-0.1,0.7-0.3,1-0.6c0.2-0.2,0.3-0.5,0.4-0.8
		c0-0.2,0-0.5-0.1-1L207.8,53.5z M219.6,55l-1.9,0.4l-0.2-1.1c-0.2,0.5-0.5,0.9-0.9,1.2c-0.4,0.3-0.8,0.5-1.2,0.6
		c-0.9,0.2-1.7,0-2.5-0.6c-0.8-0.6-1.3-1.5-1.5-2.8c-0.3-1.3-0.2-2.4,0.3-3.2c0.5-0.8,1.2-1.3,2.1-1.5c0.9-0.2,1.7,0,2.4,0.6
		l-0.8-3.8l2-0.4L219.6,55z M213.4,52.1c0.2,0.8,0.4,1.4,0.7,1.7c0.4,0.5,0.9,0.6,1.5,0.5c0.5-0.1,0.8-0.4,1.1-0.8
		c0.2-0.5,0.3-1.1,0.1-1.9c-0.2-0.9-0.5-1.5-0.9-1.8c-0.4-0.3-0.8-0.4-1.3-0.3c-0.5,0.1-0.9,0.4-1.1,0.8
		C213.3,50.7,213.2,51.3,213.4,52.1z M221,53.5l-0.4-2.1l4.7-3l-5.5-1l-0.4-2l7.9,1.7l0.3,1.7L221,53.5z M237,50.3l-7.9-1.7
		l-0.3-1.8l6.7-4.6l0.4,2.1l-4.7,3l5.5,1L237,50.3z M238,51.5l0.4-11.5l1.5-0.3l-0.5,11.5L238,51.5z M243.1,39.3l0.8,3.9
		c0.5-0.9,1.2-1.4,2.1-1.6c0.5-0.1,0.9-0.1,1.3,0c0.4,0.1,0.7,0.3,1,0.5c0.2,0.2,0.4,0.5,0.6,0.8c0.1,0.3,0.3,0.8,0.4,1.5l0.9,4.5
		l-2,0.4l-0.8-4.1c-0.2-0.8-0.3-1.3-0.4-1.5c-0.1-0.2-0.3-0.3-0.5-0.4c-0.2-0.1-0.5-0.1-0.8,0c-0.3,0.1-0.6,0.2-0.9,0.4
		c-0.2,0.2-0.4,0.5-0.4,0.9c-0.1,0.4,0,0.9,0.1,1.5l0.8,3.9l-2,0.4L241,39.7L243.1,39.3z M256.2,45.2l2.1-0.1
		c-0.1,0.8-0.4,1.4-0.9,1.9c-0.5,0.5-1.2,0.8-2,1c-1.3,0.3-2.4,0-3.2-0.7c-0.6-0.6-1.1-1.4-1.3-2.5c-0.3-1.3-0.1-2.3,0.4-3.2
		c0.5-0.9,1.3-1.4,2.3-1.6c1.1-0.2,2.1,0,2.9,0.6c0.8,0.6,1.4,1.7,1.6,3.3l-5.1,1c0.1,0.6,0.4,1,0.8,1.3c0.4,0.3,0.8,0.4,1.3,0.3
		c0.3-0.1,0.6-0.2,0.8-0.4C256.1,45.9,256.2,45.6,256.2,45.2z M255.9,43.1c-0.1-0.6-0.4-1-0.7-1.3c-0.4-0.2-0.7-0.3-1.2-0.2
		c-0.4,0.1-0.8,0.3-1,0.7c-0.2,0.4-0.3,0.9-0.2,1.4L255.9,43.1z M260.9,41.2l-1.9,0c0.1-0.8,0.3-1.4,0.7-1.9s1.2-0.8,2.2-1
		c0.9-0.2,1.6-0.2,2.1-0.1c0.5,0.1,0.9,0.3,1.1,0.6c0.2,0.3,0.5,0.9,0.6,1.8l0.5,2.4c0.1,0.7,0.3,1.2,0.4,1.5c0.1,0.3,0.3,0.6,0.6,1
		l-2,0.4c-0.1-0.1-0.2-0.3-0.3-0.6c-0.1-0.1-0.1-0.2-0.1-0.2c-0.3,0.4-0.6,0.7-1,1c-0.4,0.2-0.8,0.4-1.2,0.5c-0.8,0.2-1.5,0.1-2-0.3
		c-0.5-0.3-0.9-0.8-1-1.5c-0.1-0.4-0.1-0.8,0.1-1.2c0.1-0.4,0.4-0.7,0.7-1c0.3-0.3,0.8-0.5,1.5-0.8c0.9-0.4,1.5-0.7,1.9-0.9l0-0.2
		c-0.1-0.4-0.2-0.7-0.5-0.8c-0.2-0.1-0.6-0.1-1.1,0c-0.4,0.1-0.6,0.2-0.8,0.4C261.1,40.6,261,40.8,260.9,41.2z M264,42.3
		c-0.2,0.1-0.6,0.3-1.2,0.6c-0.5,0.2-0.9,0.4-1,0.6c-0.2,0.2-0.3,0.5-0.3,0.8c0.1,0.3,0.2,0.5,0.5,0.7c0.3,0.2,0.5,0.2,0.9,0.2
		c0.4-0.1,0.7-0.3,1-0.6c0.2-0.2,0.3-0.5,0.4-0.8c0-0.2,0-0.5-0.1-1L264,42.3z M275.8,43.8l-1.9,0.4l-0.2-1.1
		c-0.2,0.5-0.5,0.9-0.9,1.2c-0.4,0.3-0.8,0.5-1.2,0.6c-0.9,0.2-1.7,0-2.5-0.6c-0.8-0.6-1.3-1.5-1.5-2.8c-0.3-1.3-0.1-2.4,0.3-3.2
		c0.5-0.8,1.2-1.3,2.1-1.5c0.9-0.2,1.7,0,2.4,0.6l-0.8-3.8l2-0.4L275.8,43.8z M269.6,40.9c0.2,0.8,0.4,1.4,0.7,1.7
		c0.4,0.5,0.9,0.6,1.5,0.5c0.5-0.1,0.8-0.4,1.1-0.8c0.2-0.5,0.3-1.1,0.1-1.9c-0.2-0.9-0.5-1.5-0.9-1.8c-0.4-0.3-0.8-0.4-1.3-0.3
		c-0.5,0.1-0.9,0.4-1.1,0.8C269.5,39.5,269.4,40.1,269.6,40.9z M277.2,42.3l-0.4-2.1l4.7-3l-5.5-1l-0.4-2l7.9,1.7l0.3,1.7
		L277.2,42.3z M99.6,44.5l-7-4.1l0.2-1.8l7.8-2.3l-0.2,2.1l-5.4,1.4l4.9,2.6L99.6,44.5z M104.5,35.4l-0.5,4c0.8-0.7,1.6-1,2.5-0.9
		c0.5,0.1,0.9,0.2,1.3,0.4c0.4,0.2,0.6,0.5,0.8,0.8s0.3,0.6,0.3,1c0,0.3,0,0.9-0.1,1.6l-0.5,4.6l-2.1-0.2l0.5-4.1
		c0.1-0.8,0.1-1.3,0.1-1.6c-0.1-0.2-0.2-0.4-0.4-0.6c-0.2-0.2-0.4-0.2-0.7-0.3c-0.3,0-0.7,0-0.9,0.1c-0.3,0.1-0.5,0.4-0.7,0.7
		c-0.2,0.3-0.3,0.8-0.4,1.5l-0.5,3.9l-2.1-0.2l1.3-10.8L104.5,35.4z M115.2,45.1l2,0.6c-0.4,0.7-0.8,1.2-1.5,1.6
		c-0.6,0.3-1.4,0.4-2.2,0.3c-1.4-0.2-2.3-0.7-2.9-1.7c-0.4-0.8-0.6-1.7-0.5-2.8c0.2-1.3,0.6-2.3,1.4-2.9c0.8-0.7,1.7-0.9,2.7-0.8
		c1.2,0.1,2,0.6,2.6,1.5c0.6,0.8,0.8,2.1,0.5,3.6l-5.2-0.6c-0.1,0.6,0.1,1.1,0.3,1.5c0.3,0.4,0.7,0.6,1.1,0.7c0.3,0,0.6,0,0.8-0.2
		C114.9,45.7,115.1,45.5,115.2,45.1z M115.6,43c0.1-0.6,0-1.1-0.3-1.4c-0.3-0.3-0.6-0.5-1-0.6c-0.4-0.1-0.8,0.1-1.2,0.4
		c-0.3,0.3-0.5,0.7-0.6,1.3L115.6,43z M121,42.8l-1.8-0.6c0.3-0.7,0.7-1.2,1.3-1.5s1.3-0.4,2.4-0.3c0.9,0.1,1.6,0.3,2,0.6
		c0.4,0.3,0.7,0.6,0.9,0.9c0.1,0.4,0.2,1,0.1,1.9l-0.3,2.4c-0.1,0.7-0.1,1.2-0.1,1.5c0,0.3,0.1,0.7,0.2,1.1l-2-0.2
		c0-0.1-0.1-0.4-0.1-0.6c0-0.1,0-0.2,0-0.3c-0.4,0.3-0.8,0.5-1.2,0.6c-0.4,0.1-0.9,0.2-1.3,0.1c-0.8-0.1-1.4-0.4-1.8-0.9
		c-0.4-0.5-0.6-1.1-0.5-1.7c0.1-0.4,0.2-0.8,0.5-1.1c0.3-0.3,0.6-0.6,1-0.7c0.4-0.1,1-0.2,1.7-0.3c1-0.1,1.7-0.2,2.1-0.3l0-0.2
		c0-0.4,0-0.7-0.2-0.9c-0.2-0.2-0.5-0.3-1.1-0.4c-0.4,0-0.7,0-0.9,0.1C121.3,42.2,121.1,42.4,121,42.8z M123.5,44.8
		c-0.3,0.1-0.7,0.1-1.3,0.2c-0.6,0.1-1,0.1-1.2,0.2c-0.3,0.2-0.5,0.4-0.5,0.7c0,0.3,0,0.6,0.2,0.8c0.2,0.2,0.5,0.4,0.8,0.4
		c0.4,0,0.7,0,1.1-0.2c0.3-0.2,0.5-0.4,0.6-0.6c0.1-0.2,0.1-0.5,0.2-1L123.5,44.8z M134.3,49.9l-1.9-0.2l0.1-1.1
		c-0.4,0.4-0.8,0.7-1.2,0.9c-0.5,0.2-0.9,0.2-1.4,0.2c-0.9-0.1-1.6-0.6-2.2-1.4c-0.6-0.8-0.8-1.8-0.6-3.1c0.2-1.3,0.6-2.3,1.3-2.9
		c0.7-0.6,1.5-0.9,2.5-0.8c0.9,0.1,1.6,0.6,2.1,1.4l0.5-3.9l2.1,0.2L134.3,49.9z M129.3,45.1c-0.1,0.8-0.1,1.4,0.1,1.8
		c0.3,0.6,0.7,0.9,1.3,1c0.5,0.1,0.9-0.1,1.3-0.5c0.4-0.4,0.6-0.9,0.7-1.8c0.1-0.9,0-1.6-0.3-2s-0.7-0.7-1.2-0.7
		c-0.5-0.1-0.9,0.1-1.3,0.4C129.6,43.8,129.4,44.4,129.3,45.1z M136.1,48.8l0.2-2.1l5.4-1.4l-4.9-2.6l0.2-2.1l7,4.1l-0.2,1.8
		L136.1,48.8z M152.3,50.7l-7-4.1l0.2-1.8l7.8-2.3l-0.2,2.1l-5.4,1.4l4.9,2.6L152.3,50.7z M152.8,52.2l4-10.8l1.6,0.2l-4,10.8
		L152.8,52.2z M161.4,42.1l-0.5,4c0.8-0.7,1.6-1,2.5-0.9c0.5,0.1,0.9,0.2,1.3,0.4c0.4,0.2,0.6,0.5,0.8,0.8c0.2,0.3,0.3,0.6,0.3,1
		c0,0.3,0,0.9-0.1,1.6l-0.5,4.6l-2.1-0.2l0.5-4.1c0.1-0.8,0.1-1.3,0.1-1.6c-0.1-0.2-0.2-0.4-0.4-0.6c-0.2-0.2-0.4-0.2-0.7-0.3
		c-0.3,0-0.7,0-0.9,0.1c-0.3,0.1-0.5,0.4-0.7,0.7c-0.2,0.3-0.3,0.8-0.4,1.5l-0.5,3.9l-2.1-0.2l1.3-10.8L161.4,42.1z M172.1,51.8
		l2,0.6c-0.4,0.7-0.8,1.2-1.5,1.6c-0.6,0.3-1.4,0.4-2.2,0.3c-1.4-0.2-2.3-0.7-2.9-1.7c-0.4-0.8-0.6-1.7-0.5-2.8
		c0.2-1.3,0.6-2.3,1.4-2.9c0.8-0.7,1.7-0.9,2.7-0.8c1.2,0.1,2,0.6,2.6,1.5c0.6,0.8,0.8,2.1,0.5,3.6l-5.2-0.6
		c-0.1,0.6,0.1,1.1,0.3,1.5c0.3,0.4,0.7,0.6,1.1,0.7c0.3,0,0.6,0,0.8-0.2C171.8,52.4,172,52.2,172.1,51.8z M172.5,49.7
		c0.1-0.6,0-1.1-0.3-1.4c-0.3-0.3-0.6-0.5-1-0.6c-0.5-0.1-0.8,0.1-1.2,0.4c-0.3,0.3-0.5,0.7-0.6,1.3L172.5,49.7z M177.9,49.5
		l-1.8-0.6c0.3-0.7,0.7-1.2,1.3-1.5c0.6-0.3,1.3-0.4,2.4-0.3c0.9,0.1,1.6,0.3,2,0.6c0.4,0.3,0.7,0.6,0.9,0.9c0.1,0.4,0.2,1,0.1,1.9
		l-0.3,2.4c-0.1,0.7-0.1,1.2-0.1,1.5c0,0.3,0.1,0.7,0.2,1.1l-2-0.2c0-0.1-0.1-0.4-0.1-0.6c0-0.1,0-0.2,0-0.3
		c-0.4,0.3-0.8,0.5-1.2,0.6c-0.4,0.1-0.9,0.2-1.3,0.1c-0.8-0.1-1.4-0.4-1.8-0.9c-0.4-0.5-0.6-1.1-0.5-1.7c0.1-0.4,0.2-0.8,0.5-1.1
		c0.3-0.3,0.6-0.6,1-0.7c0.4-0.1,1-0.2,1.7-0.3c1-0.1,1.7-0.2,2.1-0.3l0-0.2c0-0.4,0-0.7-0.2-0.9c-0.2-0.2-0.5-0.3-1.1-0.4
		c-0.4,0-0.7,0-0.9,0.1C178.2,48.9,178,49.1,177.9,49.5z M180.4,51.5c-0.3,0.1-0.7,0.1-1.3,0.2c-0.6,0.1-1,0.1-1.2,0.2
		c-0.3,0.2-0.5,0.4-0.5,0.7c0,0.3,0,0.6,0.2,0.8c0.2,0.2,0.5,0.4,0.8,0.4c0.4,0,0.7,0,1.1-0.2c0.3-0.2,0.5-0.4,0.6-0.6
		c0.1-0.2,0.1-0.5,0.2-1L180.4,51.5z M191.2,56.5l-1.9-0.2l0.1-1.1c-0.4,0.4-0.8,0.7-1.2,0.9c-0.5,0.2-0.9,0.2-1.4,0.2
		c-0.9-0.1-1.6-0.6-2.2-1.4c-0.6-0.8-0.8-1.8-0.6-3.1c0.2-1.3,0.6-2.3,1.3-2.9c0.7-0.6,1.5-0.9,2.5-0.8c0.9,0.1,1.6,0.6,2.1,1.4
		l0.5-3.9l2.1,0.2L191.2,56.5z M186.2,51.8c-0.1,0.8-0.1,1.4,0.1,1.8c0.3,0.6,0.7,0.9,1.3,1c0.5,0.1,0.9-0.1,1.3-0.5
		c0.4-0.4,0.6-1,0.7-1.8c0.1-0.9,0-1.6-0.3-2c-0.3-0.4-0.7-0.7-1.2-0.7c-0.5-0.1-0.9,0.1-1.3,0.4C186.5,50.5,186.3,51.1,186.2,51.8z
		 M193,55.5l0.2-2.1l5.4-1.4l-4.9-2.6l0.2-2.1l7,4.1l-0.2,1.8L193,55.5z M46.9,35.8l-2.1-0.3c0.1-0.4,0-0.8-0.2-1
		c-0.2-0.3-0.4-0.5-0.8-0.6c-0.5-0.2-0.9-0.1-1.3,0.1c-0.4,0.2-0.7,0.8-1,1.6c-0.3,0.9-0.3,1.6-0.2,2c0.2,0.5,0.5,0.8,1,0.9
		c0.4,0.1,0.7,0.1,1,0c0.3-0.1,0.6-0.4,0.9-0.9l1.8,1c-0.5,0.8-1.1,1.4-1.8,1.6c-0.7,0.3-1.6,0.2-2.5-0.1c-1.1-0.4-1.9-1-2.3-1.9
		c-0.4-0.9-0.4-2,0-3.2c0.4-1.2,1-2.1,1.9-2.6c0.9-0.5,1.9-0.5,3-0.2c0.9,0.3,1.6,0.7,2,1.3C46.8,34.2,47,34.9,46.9,35.8z
		 M47.5,37.5c0.2-0.7,0.6-1.2,1.1-1.7c0.5-0.5,1.1-0.8,1.8-1c0.7-0.1,1.4-0.1,2.1,0.2c1.1,0.4,1.9,1,2.4,2c0.5,1,0.5,2,0.2,3.1
		c-0.4,1.1-1,1.9-2,2.5c-1,0.5-2,0.6-3.1,0.2c-0.7-0.2-1.3-0.6-1.8-1.1c-0.5-0.5-0.8-1.1-1-1.8C47.1,39.2,47.2,38.4,47.5,37.5z
		 M49.5,38.3c-0.2,0.7-0.3,1.4,0,1.9c0.2,0.5,0.6,0.8,1.1,1c0.5,0.2,1,0.1,1.5-0.2c0.5-0.3,0.8-0.8,1.1-1.5c0.2-0.7,0.2-1.4,0-1.9
		c-0.2-0.5-0.6-0.8-1.1-1c-0.5-0.2-1-0.1-1.5,0.2C50.1,37.1,49.7,37.6,49.5,38.3z M62.3,46.6l-2-0.6l1.2-3.8
		c0.3-0.8,0.4-1.3,0.4-1.6c0-0.3-0.1-0.5-0.2-0.7c-0.1-0.2-0.4-0.3-0.6-0.4c-0.3-0.1-0.7-0.1-1,0c-0.3,0.1-0.6,0.3-0.8,0.6
		c-0.2,0.3-0.4,0.8-0.7,1.7L57.5,45l-2-0.6l2.4-7.5l1.8,0.6l-0.4,1.1c0.9-0.6,1.9-0.8,2.9-0.5c0.4,0.1,0.8,0.4,1.1,0.6
		c0.3,0.3,0.5,0.6,0.6,0.9c0.1,0.3,0.1,0.6,0.1,1c0,0.3-0.1,0.8-0.3,1.4L62.3,46.6z M64.3,44.9l2.1,0.3c0,0.4,0,0.8,0.2,1
		c0.2,0.3,0.5,0.5,1,0.7c0.5,0.2,0.9,0.2,1.2,0.1c0.2-0.1,0.4-0.2,0.4-0.4c0-0.1,0-0.3,0-0.4c-0.1-0.1-0.3-0.3-0.6-0.5
		c-1.5-0.9-2.4-1.5-2.7-2c-0.5-0.6-0.6-1.3-0.3-2c0.2-0.6,0.6-1.1,1.3-1.4c0.7-0.3,1.5-0.2,2.6,0.1c1,0.3,1.7,0.7,2.1,1.2
		c0.4,0.5,0.6,1.1,0.5,1.8l-2-0.3c0-0.3-0.1-0.6-0.2-0.8c-0.2-0.2-0.5-0.4-0.9-0.5c-0.5-0.2-0.9-0.2-1.2-0.1
		c-0.2,0.1-0.3,0.2-0.4,0.3c0,0.1,0,0.3,0.1,0.4c0.1,0.2,0.7,0.6,1.7,1.2c1,0.6,1.6,1.1,1.9,1.6c0.3,0.5,0.3,1,0.1,1.7
		c-0.2,0.7-0.7,1.2-1.4,1.5c-0.7,0.3-1.7,0.3-2.8-0.1c-1-0.3-1.8-0.8-2.2-1.4C64.5,46.4,64.3,45.7,64.3,44.9z M78.2,43.5l-0.5,1.6
		l-1.4-0.4l-1,3c-0.2,0.6-0.3,1-0.3,1.1c0,0.1,0,0.2,0.1,0.3c0.1,0.1,0.2,0.2,0.3,0.2c0.2,0.1,0.5,0.1,0.9,0.1L76,50.9
		c-0.5,0-1.1,0-1.7-0.2c-0.4-0.1-0.7-0.3-0.9-0.5c-0.2-0.2-0.4-0.4-0.5-0.7c-0.1-0.2-0.1-0.5,0-0.9c0-0.2,0.2-0.7,0.4-1.4l1.1-3.3
		l-0.9-0.3l0.5-1.6l0.9,0.3l0.5-1.5l2.4-0.5l-0.9,2.6L78.2,43.5z M45.4,172.7l-4.8-13.4l2.6-0.9l4.8,13.4L45.4,172.7z M55.1,165.8
		l2.7-0.5c0,1.1-0.3,2-0.8,2.7c-0.5,0.7-1.3,1.3-2.4,1.7c-1.7,0.6-3.1,0.5-4.3-0.3c-1-0.7-1.7-1.6-2.2-3c-0.6-1.6-0.6-3-0.1-4.2
		c0.5-1.2,1.4-2,2.7-2.5c1.4-0.5,2.7-0.4,3.9,0.2c1.2,0.7,2.1,2,2.8,3.9l-6.4,2.3c0.3,0.8,0.7,1.3,1.3,1.5c0.5,0.3,1.1,0.3,1.7,0.1
		c0.4-0.1,0.7-0.4,0.9-0.7C55.1,166.7,55.1,166.3,55.1,165.8z M54.3,163.1c-0.3-0.7-0.7-1.2-1.2-1.5c-0.5-0.3-1-0.3-1.5-0.1
		c-0.6,0.2-0.9,0.6-1.2,1.1c-0.2,0.5-0.2,1.2,0.1,1.8L54.3,163.1z M61.9,155.9l0.7,2l-1.7,0.6l1.4,3.9c0.3,0.8,0.5,1.2,0.5,1.4
		c0.1,0.1,0.2,0.2,0.3,0.2c0.1,0,0.3,0,0.5,0c0.2-0.1,0.6-0.3,0.9-0.6l0.9,1.9c-0.5,0.5-1.1,0.8-1.9,1.1c-0.5,0.2-0.9,0.2-1.3,0.2
		c-0.4,0-0.8-0.1-1-0.3c-0.3-0.2-0.5-0.5-0.7-0.9c-0.2-0.3-0.4-0.9-0.7-1.8l-1.5-4.2l-1.2,0.4l-0.7-2l1.2-0.4l-0.7-1.9l2-2.4
		l1.2,3.4L61.9,155.9z M126.6,158.5c-0.4,0-0.6,0-0.8,0.1c-0.2,0.1-0.4,0.2-0.5,0.4c-0.2,0.2-0.3,0.4-0.4,0.8
		c-0.1,0.2-0.1,0.6-0.2,1.2c-0.1,1-0.2,1.6-0.3,2c-0.1,0.4-0.3,0.7-0.6,0.9c-0.3,0.2-0.6,0.3-1.1,0.4c-0.3,0.1-0.8,0-1.4,0l-0.4,0
		l0.2-1.8c0.5,0.1,0.9,0.1,1,0c0.2,0,0.3-0.1,0.4-0.2c0.1-0.1,0.2-0.3,0.2-0.6s0.1-0.9,0.2-1.7c0.1-0.5,0.2-0.9,0.3-1.2
		c0.1-0.3,0.3-0.5,0.5-0.7c0.2-0.2,0.5-0.4,0.7-0.5c-0.3-0.3-0.6-0.5-0.7-0.8c-0.2-0.3-0.3-0.8-0.3-1.3c0-0.3,0-1.1,0.1-2.3
		c0-0.4,0-0.6,0-0.7c0-0.1-0.1-0.2-0.3-0.3c-0.2-0.1-0.5-0.2-1.1-0.2l0.2-1.8l0.4,0c0.7,0.1,1.2,0.2,1.5,0.3s0.6,0.3,0.8,0.6
		c0.2,0.3,0.3,0.6,0.4,1c0,0.4,0,0.9-0.1,1.7c-0.1,0.9-0.1,1.5-0.1,1.8c0.1,0.4,0.2,0.7,0.4,0.9c0.2,0.2,0.5,0.3,1,0.4L126.6,158.5z
		 M49.2,64.1l0.6-2.1c0.4,0.1,0.8,0.1,1,0.1c0.2,0,0.5-0.2,0.7-0.4c0.2-0.2,0.4-0.5,0.6-0.8c0.1-0.3,0.3-0.7,0.5-1.4
		c0.3-1.1,0.6-1.9,0.9-2.3c0.2-0.4,0.5-0.7,0.9-0.9c0.4-0.2,0.8-0.3,1.4-0.3c0.4,0,1,0.1,1.7,0.4l0.5,0.1l-0.6,2.1
		c-0.6-0.2-1.1-0.3-1.3-0.3c-0.2,0-0.4,0.1-0.5,0.2c-0.1,0.1-0.3,0.4-0.4,0.7c-0.1,0.4-0.4,1.1-0.7,2.1c-0.2,0.6-0.4,1-0.7,1.3
		c-0.2,0.3-0.5,0.6-0.7,0.7s-0.6,0.3-1.1,0.5c0.3,0.3,0.5,0.6,0.6,1c0.1,0.3,0.2,0.7,0.2,1.1s-0.1,0.9-0.2,1.6
		c-0.3,1-0.4,1.6-0.5,1.9c-0.1,0.4-0.2,0.7-0.1,0.8c0,0.2,0.2,0.3,0.3,0.5c0.2,0.1,0.6,0.3,1.2,0.5L53,73.3l-0.5-0.1
		c-0.8-0.2-1.4-0.5-1.7-0.7c-0.4-0.3-0.7-0.6-0.9-1c-0.2-0.4-0.3-0.8-0.2-1.3c0-0.5,0.2-1.1,0.5-2.1c0.3-1.1,0.5-1.8,0.5-2.1
		c0-0.5-0.1-0.9-0.3-1.2C50.1,64.6,49.8,64.3,49.2,64.1z M314.4,108.4l1.4,0.3l0.1-0.7c0.2-0.8,0.4-1.4,0.6-1.7
		c0.2-0.4,0.6-0.6,1.1-0.8c0.5-0.2,1.1-0.2,1.8,0c0.7,0.1,1.4,0.4,2,0.7l-0.7,1.7c-0.4-0.2-0.7-0.3-1.1-0.4c-0.4-0.1-0.6,0-0.8,0.1
		c-0.2,0.1-0.3,0.4-0.4,0.9l-0.1,0.7l1.9,0.4l-0.4,2l-1.9-0.4l-1.4,7.4L314,118l1.4-7.4l-1.4-0.3L314.4,108.4z M325.8,117.2l2.4,0.9
		c-0.5,0.8-1.1,1.4-1.9,1.8c-0.8,0.3-1.7,0.4-2.7,0.2c-1.6-0.3-2.7-1.1-3.3-2.3c-0.5-1-0.6-2.1-0.3-3.4c0.3-1.6,0.9-2.7,1.9-3.4
		c1-0.7,2.1-1,3.3-0.7c1.4,0.3,2.4,0.9,3,2c0.6,1.1,0.7,2.6,0.3,4.5l-6.2-1.2c-0.1,0.7,0,1.4,0.3,1.8c0.3,0.5,0.7,0.8,1.3,0.9
		c0.4,0.1,0.7,0,1-0.1C325.3,118,325.5,117.7,325.8,117.2z M326.4,114.7c0.1-0.7,0-1.3-0.2-1.7c-0.3-0.4-0.7-0.7-1.2-0.8
		c-0.5-0.1-1,0-1.5,0.3c-0.4,0.3-0.7,0.8-0.8,1.5L326.4,114.7z M332.9,114.9l-2.2-0.8c0.4-0.9,1-1.4,1.7-1.8
		c0.7-0.3,1.7-0.4,2.9-0.1c1.1,0.2,1.9,0.5,2.4,0.9c0.5,0.4,0.8,0.8,1,1.2c0.1,0.4,0.1,1.2-0.1,2.3l-0.6,2.9
		c-0.2,0.8-0.2,1.4-0.2,1.9c0,0.4,0.1,0.9,0.2,1.3l-2.5-0.5c0-0.2-0.1-0.4-0.1-0.8c0-0.2,0-0.3,0-0.3c-0.5,0.3-1,0.6-1.5,0.7
		c-0.5,0.1-1.1,0.1-1.6,0c-1-0.2-1.7-0.6-2.1-1.2c-0.5-0.6-0.6-1.4-0.5-2.2c0.1-0.5,0.3-1,0.7-1.3c0.3-0.4,0.8-0.6,1.3-0.7
		c0.5-0.1,1.2-0.2,2.1-0.2c1.2,0,2,0,2.5-0.1l0-0.2c0.1-0.5,0-0.8-0.2-1.1c-0.2-0.2-0.6-0.4-1.3-0.6c-0.4-0.1-0.8-0.1-1.1,0.1
		C333.4,114.3,333.2,114.5,332.9,114.9z M335.9,117.6c-0.3,0-0.9,0.1-1.6,0.1c-0.7,0-1.2,0.1-1.4,0.2c-0.4,0.2-0.6,0.4-0.7,0.8
		c-0.1,0.3,0,0.7,0.2,1c0.2,0.3,0.5,0.5,0.9,0.6c0.4,0.1,0.9,0,1.4-0.2c0.3-0.2,0.6-0.4,0.8-0.7c0.1-0.2,0.2-0.6,0.3-1.2
		L335.9,117.6z M346,114.5l-0.4,2l-1.7-0.3l-0.7,3.8c-0.1,0.8-0.2,1.2-0.2,1.4c0,0.1,0.1,0.3,0.2,0.4c0.1,0.1,0.2,0.2,0.4,0.2
		c0.2,0,0.6,0,1,0l-0.2,2c-0.6,0.1-1.3,0.1-2,0c-0.4-0.1-0.8-0.2-1.2-0.5c-0.3-0.2-0.6-0.5-0.7-0.7c-0.1-0.3-0.2-0.6-0.2-1
		c0-0.3,0.1-0.9,0.3-1.8l0.8-4.1l-1.1-0.2l0.4-2l1.1,0.2l0.4-1.9l2.8-1l-0.6,3.3L346,114.5z M347.8,117.4l0.5-2.5l2.5,0.5l-0.5,2.5
		L347.8,117.4z M346.4,124.3l0.5-2.5l2.5,0.5l-0.5,2.5L346.4,124.3z M209.8,6.3l1.9,1.5c-0.1,0.3-0.1,0.5-0.1,0.6
		c0.1,0.2,0.3,0.4,0.7,0.7c0.5,0.3,0.9,0.4,1.2,0.4c0.2,0,0.4-0.1,0.6-0.2c0.1-0.1,0.3-0.4,0.6-0.8l0.6-1c-1,0.4-1.9,0.4-2.7-0.1
		c-0.9-0.5-1.4-1.3-1.5-2.4c-0.1-0.9,0.2-1.7,0.7-2.6c0.7-1.1,1.5-1.8,2.4-2.1c0.9-0.3,1.8-0.2,2.6,0.3c0.8,0.5,1.3,1.3,1.4,2.3
		l0.6-1l1.7,1l-3.6,6.1c-0.5,0.8-0.9,1.4-1.3,1.7c-0.4,0.3-0.7,0.5-1.1,0.6c-0.4,0.1-0.8,0.1-1.3,0c-0.5-0.1-1-0.3-1.6-0.7
		c-1.1-0.7-1.8-1.4-2.1-2c-0.2-0.7-0.2-1.3,0.2-1.9C209.7,6.4,209.7,6.4,209.8,6.3z M213.7,3.3c-0.4,0.7-0.6,1.3-0.5,1.8
		c0.1,0.5,0.3,0.9,0.7,1.1c0.4,0.3,0.9,0.3,1.4,0.1c0.5-0.2,1-0.6,1.4-1.3c0.4-0.7,0.6-1.3,0.5-1.8c-0.1-0.5-0.4-0.9-0.8-1.2
		C216,1.8,215.5,1.8,215,2C214.5,2.1,214.1,2.6,213.7,3.3z M218.2,10.6l4-6.8l1.8,1.1l-4,6.8L218.2,10.6z M222.7,2.9l1-1.7l1.8,1.1
		l-1,1.7L222.7,2.9z M228.9,7.8L228,9.3l-1.2-0.7l-1.6,2.7c-0.3,0.6-0.5,0.9-0.5,1c0,0.1,0,0.2,0,0.3c0,0.1,0.1,0.2,0.3,0.3
		c0.2,0.1,0.4,0.2,0.8,0.3l-0.7,1.5c-0.5-0.1-1-0.3-1.6-0.6c-0.3-0.2-0.6-0.4-0.8-0.7c-0.2-0.3-0.3-0.5-0.3-0.8c0-0.2,0-0.5,0.2-0.8
		c0.1-0.2,0.3-0.7,0.7-1.3l1.7-3L224.2,7l0.8-1.4l0.8,0.5l0.8-1.3l2.4,0l-1.4,2.4L228.9,7.8z M233.9,13.6l-1.5-1.3
		c0.6-0.5,1.2-0.8,1.8-0.9c0.6-0.1,1.4,0.2,2.3,0.7c0.8,0.5,1.3,0.9,1.6,1.3c0.3,0.4,0.4,0.8,0.4,1.2c0,0.4-0.2,1-0.7,1.7l-1.3,2.1
		c-0.4,0.6-0.6,1-0.7,1.4c-0.1,0.3-0.2,0.7-0.2,1.1l-1.8-1c0-0.1,0.1-0.4,0.1-0.6c0-0.1,0.1-0.2,0.1-0.2c-0.5,0.1-0.9,0.1-1.4,0.1
		c-0.4-0.1-0.9-0.2-1.2-0.4c-0.7-0.4-1.1-0.9-1.3-1.5c-0.2-0.6-0.1-1.2,0.2-1.8c0.2-0.4,0.5-0.7,0.9-0.9c0.4-0.2,0.8-0.3,1.2-0.2
		c0.4,0,1,0.2,1.7,0.4c0.9,0.3,1.6,0.5,2,0.6l0.1-0.2c0.2-0.3,0.3-0.6,0.2-0.9c-0.1-0.2-0.4-0.5-0.8-0.8c-0.3-0.2-0.6-0.3-0.9-0.3
		C234.5,13.2,234.2,13.3,233.9,13.6z M235.4,16.4c-0.3-0.1-0.7-0.2-1.2-0.4c-0.6-0.2-0.9-0.3-1.2-0.3c-0.3,0-0.6,0.2-0.7,0.4
		c-0.1,0.3-0.2,0.5-0.1,0.8c0.1,0.3,0.3,0.5,0.6,0.7c0.3,0.2,0.7,0.3,1.1,0.2c0.3,0,0.6-0.1,0.8-0.3c0.1-0.1,0.3-0.4,0.6-0.8
		L235.4,16.4z M243.2,25.4l-1.7-1l0.6-1c-0.5,0.2-1,0.3-1.5,0.3c-0.5,0-0.9-0.2-1.3-0.4c-0.8-0.5-1.3-1.2-1.4-2.1
		c-0.2-1,0.1-2,0.7-3.1c0.7-1.1,1.5-1.9,2.4-2.1c0.9-0.3,1.7-0.2,2.6,0.3c0.8,0.4,1.2,1.1,1.4,2.1l2-3.4l1.8,1.1L243.2,25.4z
		 M240.5,19.1c-0.4,0.7-0.6,1.3-0.6,1.7c0,0.6,0.3,1.1,0.8,1.4c0.4,0.2,0.9,0.3,1.4,0.1c0.5-0.2,0.9-0.6,1.4-1.3
		c0.5-0.8,0.6-1.4,0.6-1.9c-0.1-0.5-0.3-0.9-0.8-1.1c-0.4-0.2-0.9-0.3-1.4-0.1C241.4,18,240.9,18.4,240.5,19.1z M251.2,30.1l-1.7-1
		l0.6-1c-0.5,0.2-1,0.3-1.5,0.3c-0.5,0-0.9-0.2-1.3-0.4c-0.8-0.5-1.3-1.2-1.4-2.1c-0.2-1,0.1-2,0.7-3.1c0.7-1.1,1.5-1.9,2.4-2.1
		c0.9-0.3,1.7-0.2,2.6,0.3c0.8,0.4,1.2,1.1,1.4,2.1l2-3.4l1.8,1.1L251.2,30.1z M248.5,23.8c-0.4,0.7-0.6,1.3-0.6,1.7
		c0,0.6,0.3,1.1,0.8,1.4c0.4,0.2,0.9,0.3,1.4,0.1c0.5-0.2,0.9-0.6,1.4-1.3c0.5-0.8,0.6-1.4,0.6-1.9c-0.1-0.5-0.3-0.9-0.8-1.1
		c-0.4-0.3-0.9-0.3-1.4-0.1C249.4,22.7,248.9,23.1,248.5,23.8z M44,94.7l3,1.2c-0.1,0.4,0,0.6,0.1,0.8c0.2,0.3,0.6,0.5,1.1,0.6
		c0.7,0.2,1.3,0.2,1.7,0.1c0.3-0.1,0.5-0.2,0.7-0.5c0.1-0.2,0.3-0.6,0.5-1.2l0.4-1.5c-1.1,0.9-2.3,1.1-3.5,0.8
		c-1.4-0.4-2.3-1.3-2.7-2.6c-0.4-1.1-0.4-2.3,0-3.7c0.5-1.7,1.3-2.9,2.3-3.5c1.1-0.7,2.2-0.8,3.4-0.5c1.3,0.4,2.1,1.2,2.6,2.5
		l0.4-1.4l2.5,0.7L54,95.7c-0.3,1.2-0.7,2.1-1.1,2.6c-0.4,0.5-0.8,0.9-1.2,1.2c-0.5,0.2-1,0.4-1.6,0.4c-0.6,0-1.4-0.1-2.3-0.4
		c-1.7-0.5-2.8-1.1-3.4-1.9c-0.6-0.8-0.7-1.6-0.4-2.5C43.9,95,43.9,94.9,44,94.7z M48,89.5c-0.3,1.1-0.3,1.9,0,2.5
		c0.3,0.6,0.7,1,1.3,1.2c0.7,0.2,1.3,0.1,1.9-0.3s1-1.1,1.3-2.1c0.3-1,0.3-1.9,0-2.5c-0.3-0.6-0.8-1-1.4-1.2
		c-0.6-0.2-1.2-0.1-1.8,0.3C48.7,87.7,48.3,88.4,48,89.5z M56.3,97.5l2.9-10.1l2.7,0.8L59,98.2L56.3,97.5z M59.5,86l0.7-2.5l2.7,0.8
		l-0.7,2.5L59.5,86z M69.2,90.2l-0.6,2.1l-1.8-0.5l-1.2,4.1c-0.2,0.8-0.4,1.3-0.4,1.5c0,0.1,0,0.3,0.1,0.4c0.1,0.1,0.2,0.2,0.4,0.3
		c0.2,0.1,0.6,0.1,1.1,0l-0.4,2.1c-0.7,0.1-1.4,0-2.2-0.2c-0.5-0.1-0.9-0.3-1.2-0.6c-0.3-0.3-0.6-0.6-0.7-0.9
		c-0.1-0.3-0.1-0.7-0.1-1.1c0-0.3,0.2-1,0.4-1.9l1.2-4.4l-1.2-0.3l0.6-2.1l1.2,0.3l0.6-2l3.1-0.8l-1,3.6L69.2,90.2z M80.6,98.4
		l-2.1-0.2c0-0.4,0-0.8-0.2-1c-0.2-0.3-0.5-0.5-0.8-0.6c-0.5-0.1-0.9-0.1-1.3,0.2c-0.4,0.3-0.7,0.8-0.9,1.6c-0.3,0.9-0.3,1.6-0.1,2
		c0.2,0.5,0.5,0.8,1.1,0.9c0.4,0.1,0.7,0.1,1-0.1c0.3-0.1,0.6-0.5,0.8-1l1.9,0.9c-0.5,0.8-1,1.4-1.8,1.7c-0.7,0.3-1.5,0.3-2.5,0
		c-1.1-0.3-1.9-0.9-2.4-1.8c-0.5-0.9-0.5-1.9-0.2-3.2c0.4-1.2,1-2.1,1.8-2.6c0.9-0.5,1.8-0.6,3-0.3c0.9,0.3,1.6,0.7,2,1.2
		C80.4,96.8,80.6,97.5,80.6,98.4z M81.3,100.1c0.2-0.7,0.5-1.3,1-1.8c0.5-0.5,1.1-0.9,1.8-1c0.7-0.2,1.4-0.1,2.1,0.1
		c1.1,0.3,2,1,2.5,1.9c0.5,0.9,0.6,2,0.3,3.1c-0.3,1.1-1,2-1.9,2.5c-1,0.5-2,0.7-3.1,0.3c-0.7-0.2-1.3-0.5-1.9-1
		c-0.5-0.5-0.9-1.1-1-1.8C81,101.8,81,101,81.3,100.1z M83.3,100.8c-0.2,0.7-0.2,1.4,0,1.9c0.2,0.5,0.6,0.8,1.1,1
		c0.5,0.1,1,0.1,1.5-0.2c0.5-0.3,0.8-0.8,1-1.6c0.2-0.7,0.2-1.4,0-1.9c-0.2-0.5-0.6-0.8-1.1-1c-0.5-0.1-1-0.1-1.5,0.2
		C83.8,99.5,83.5,100.1,83.3,100.8z M91.5,99.1l1.8,0.5l-0.3,1c0.9-0.6,1.8-0.8,2.7-0.5c0.5,0.1,0.9,0.4,1.2,0.7
		c0.3,0.3,0.5,0.7,0.6,1.2c0.4-0.3,0.9-0.5,1.3-0.6c0.4-0.1,0.9-0.1,1.3,0c0.6,0.2,1,0.4,1.3,0.7c0.3,0.3,0.5,0.7,0.6,1.2
		c0,0.4,0,0.9-0.2,1.6l-1.4,4.8l-2-0.6l1.2-4.3c0.2-0.7,0.3-1.3,0.2-1.5c-0.1-0.3-0.3-0.6-0.7-0.7c-0.3-0.1-0.6-0.1-0.9,0
		c-0.3,0.1-0.5,0.3-0.7,0.6c-0.2,0.3-0.4,0.8-0.6,1.5l-1,3.6l-2-0.6l1.2-4.1c0.2-0.7,0.3-1.2,0.3-1.5c0-0.2-0.1-0.4-0.2-0.6
		c-0.1-0.1-0.3-0.3-0.6-0.3c-0.3-0.1-0.6-0.1-0.9,0c-0.3,0.1-0.5,0.3-0.7,0.6c-0.2,0.3-0.4,0.8-0.6,1.5l-1,3.7l-2-0.6L91.5,99.1z
		 M104.5,102.7l1.8,0.5l-0.3,1c0.9-0.6,1.8-0.8,2.7-0.5c0.5,0.1,0.9,0.4,1.2,0.7c0.3,0.3,0.5,0.7,0.6,1.2c0.4-0.3,0.9-0.5,1.3-0.6
		c0.4-0.1,0.9-0.1,1.3,0c0.6,0.2,1,0.4,1.3,0.7c0.3,0.3,0.5,0.7,0.6,1.2c0,0.4,0,0.9-0.2,1.6l-1.4,4.8l-2-0.6l1.2-4.3
		c0.2-0.8,0.3-1.3,0.2-1.5c-0.1-0.3-0.3-0.6-0.7-0.7c-0.3-0.1-0.6-0.1-0.9,0c-0.3,0.1-0.5,0.3-0.7,0.6c-0.2,0.3-0.4,0.8-0.6,1.5
		l-1,3.6l-2-0.6l1.2-4.1c0.2-0.7,0.3-1.2,0.3-1.5c0-0.2-0.1-0.4-0.2-0.6c-0.1-0.1-0.3-0.3-0.6-0.3c-0.3-0.1-0.6-0.1-0.9,0
		c-0.3,0.1-0.5,0.3-0.7,0.6c-0.2,0.3-0.4,0.8-0.6,1.5l-1,3.7l-2-0.6L104.5,102.7z M115.5,114l2.1-7.6l2,0.6l-2.1,7.6L115.5,114z
		 M117.9,105.4l0.5-1.9l2,0.6l-0.5,1.9L117.9,105.4z M125.1,108.5l-0.5,1.6l-1.4-0.4l-0.9,3c-0.2,0.6-0.3,1-0.3,1.1
		c0,0.1,0,0.2,0.1,0.3c0.1,0.1,0.2,0.2,0.3,0.2c0.2,0.1,0.5,0.1,0.9,0l-0.3,1.6c-0.5,0.1-1.1,0-1.7-0.1c-0.4-0.1-0.7-0.3-0.9-0.5
		c-0.3-0.2-0.4-0.4-0.5-0.7c-0.1-0.2-0.1-0.5-0.1-0.9c0-0.2,0.1-0.7,0.3-1.4l0.9-3.3l-0.9-0.3l0.5-1.6l0.9,0.3l0.4-1.5l2.3-0.6
		l-0.8,2.7L125.1,108.5z M291.5,61.9l1,0.5l0.3-0.5c0.3-0.6,0.6-1,0.8-1.2c0.3-0.2,0.6-0.4,1-0.4c0.4,0,0.9,0.1,1.4,0.3
		c0.5,0.3,1,0.6,1.5,1l-0.9,1.2c-0.3-0.2-0.5-0.4-0.8-0.5c-0.3-0.1-0.5-0.2-0.7-0.1c-0.2,0.1-0.4,0.3-0.5,0.6l-0.2,0.5l1.4,0.7
		l-0.7,1.5l-1.4-0.7l-2.7,5.6l-1.9-0.9l2.7-5.6l-1-0.5L291.5,61.9z M298.2,73.8l0.5-1.1c-0.4,0.3-0.9,0.4-1.4,0.4
		c-0.5,0-1-0.1-1.5-0.3c-0.5-0.2-0.9-0.5-1.1-0.9c-0.3-0.4-0.4-0.8-0.4-1.3c0-0.5,0.2-1,0.5-1.7l2.1-4.5l1.9,0.9l-1.6,3.3
		c-0.5,1-0.7,1.6-0.8,1.9c0,0.3,0,0.5,0.1,0.7c0.1,0.2,0.3,0.4,0.6,0.5c0.3,0.2,0.6,0.2,1,0.1c0.3-0.1,0.6-0.2,0.8-0.4
		c0.2-0.2,0.6-0.8,1.1-1.8l1.4-3l1.9,0.9l-3.4,7.1L298.2,73.8z M308.3,78.6l-1.9-0.9l1.7-3.6c0.4-0.8,0.6-1.3,0.6-1.5
		c0-0.3,0-0.5-0.1-0.7c-0.1-0.2-0.3-0.4-0.6-0.5c-0.3-0.2-0.7-0.2-1-0.1c-0.3,0.1-0.6,0.2-0.9,0.5c-0.2,0.2-0.5,0.8-0.9,1.6
		l-1.5,3.2l-1.9-0.9l3.4-7.1l1.7,0.8l-0.5,1c1-0.5,2-0.5,2.9-0.1c0.4,0.2,0.8,0.5,1,0.8c0.3,0.3,0.4,0.6,0.5,0.9
		c0.1,0.3,0.1,0.6,0,1c-0.1,0.3-0.2,0.8-0.5,1.3L308.3,78.6z M318.8,77.5l-2-0.5c0.1-0.4,0.1-0.7,0-1c-0.1-0.3-0.4-0.5-0.7-0.7
		c-0.5-0.2-0.9-0.2-1.4,0s-0.8,0.7-1.2,1.4c-0.4,0.8-0.5,1.5-0.4,2c0.1,0.5,0.4,0.8,0.9,1.1c0.4,0.2,0.7,0.2,1,0.1
		c0.3-0.1,0.6-0.4,1-0.8l1.7,1.2c-0.6,0.8-1.3,1.2-2,1.4c-0.7,0.2-1.6,0-2.5-0.4c-1-0.5-1.7-1.2-2-2.2c-0.3-0.9-0.2-2,0.4-3.2
		c0.6-1.2,1.3-1.9,2.2-2.3s1.9-0.3,3,0.2c0.9,0.4,1.5,0.9,1.8,1.5C318.8,75.9,318.9,76.6,318.8,77.5z M324.5,77.6l-0.7,1.5l-1.3-0.6
		l-1.4,2.9c-0.3,0.6-0.4,0.9-0.4,1c0,0.1,0,0.2,0.1,0.3c0.1,0.1,0.1,0.2,0.3,0.2c0.2,0.1,0.5,0.1,0.8,0.2l-0.5,1.5
		c-0.5,0-1.1-0.2-1.6-0.4c-0.3-0.2-0.6-0.4-0.8-0.6c-0.2-0.2-0.3-0.5-0.4-0.7c0-0.2,0-0.5,0.1-0.9c0.1-0.2,0.3-0.7,0.6-1.4l1.5-3.1
		l-0.9-0.4l0.7-1.5l0.9,0.4l0.7-1.4l2.4-0.2l-1.2,2.5L324.5,77.6z M322.4,85.3l3.4-7.1l1.9,0.9l-3.4,7.1L322.4,85.3z M326.2,77.2
		l0.8-1.7l1.9,0.9l-0.8,1.7L326.2,77.2z M327.5,83.3c0.3-0.6,0.7-1.2,1.3-1.6c0.6-0.4,1.2-0.7,1.9-0.7c0.7,0,1.4,0.1,2.1,0.4
		c1.1,0.5,1.8,1.3,2.1,2.3c0.4,1,0.3,2.1-0.2,3.1c-0.5,1.1-1.3,1.8-2.3,2.2c-1,0.4-2.1,0.3-3.1-0.2c-0.7-0.3-1.2-0.8-1.7-1.3
		c-0.5-0.6-0.7-1.2-0.7-1.9C326.9,84.8,327.1,84.1,327.5,83.3z M329.4,84.3c-0.3,0.7-0.4,1.3-0.3,1.9c0.2,0.5,0.5,0.9,1,1.1
		c0.5,0.2,1,0.2,1.5,0c0.5-0.2,0.9-0.7,1.3-1.4c0.3-0.7,0.4-1.3,0.3-1.8c-0.2-0.5-0.5-0.9-1-1.1c-0.5-0.2-1-0.2-1.5,0
		C330.1,83.1,329.7,83.6,329.4,84.3z M341,94.2l-1.9-0.9l1.7-3.6c0.4-0.8,0.6-1.3,0.6-1.5c0-0.3,0-0.5-0.1-0.7
		c-0.1-0.2-0.3-0.4-0.6-0.5c-0.3-0.2-0.7-0.2-1-0.1c-0.3,0.1-0.6,0.2-0.9,0.5c-0.2,0.2-0.5,0.8-0.9,1.6l-1.5,3.2l-1.9-0.9l3.4-7.1
		l1.7,0.8l-0.5,1c1-0.5,2-0.5,2.9-0.1c0.4,0.2,0.8,0.5,1,0.8s0.4,0.6,0.5,0.9c0.1,0.3,0.1,0.6,0,1c-0.1,0.3-0.2,0.8-0.5,1.3
		L341,94.2z M344.7,99.4l-1.3-0.6c-0.2-1.4-0.2-2.7,0-3.9c0.2-1.3,0.5-2.4,1-3.5c0.6-1.3,1.4-2.4,2.4-3.3c0.9-0.8,1.8-1.5,2.8-2.1
		l1.3,0.6c-1.3,1.1-2.2,2-2.9,2.8c-0.7,0.8-1.3,1.8-1.8,2.8c-0.3,0.7-0.6,1.5-0.9,2.3c-0.2,0.8-0.4,1.6-0.5,2.5
		C344.7,97.6,344.7,98.4,344.7,99.4z M347.5,97.2l0.9-1.9l1.9,0.9l-0.9,1.9L347.5,97.2z M351.3,99l0.9-1.9l1.9,0.9l-0.9,1.9
		L351.3,99z M355.1,100.8L356,99l1.9,0.9l-0.9,1.9L355.1,100.8z M357,105.3c0.7-0.6,1.3-1.1,1.6-1.5c0.4-0.4,0.7-0.8,1.1-1.3
		c0.4-0.5,0.7-1,1-1.4c0.3-0.5,0.6-1,0.8-1.5c0.5-1.1,0.9-2.1,1.1-3.2c0.2-1.1,0.4-2.4,0.4-4l1.3,0.6c0.2,1.3,0.3,2.5,0.1,3.8
		c-0.1,1.3-0.5,2.4-1,3.5c-0.4,0.9-1.1,1.9-1.9,2.8c-0.9,1-2,2-3.3,2.8L357,105.3z M281.1,18.9l-1.9-0.4c0.3-0.7,0.6-1.3,1.2-1.6
		c0.5-0.3,1.3-0.5,2.3-0.4c0.9,0.1,1.6,0.2,2,0.4c0.4,0.2,0.7,0.5,0.9,0.9s0.2,1,0.2,1.9l-0.2,2.4c0,0.7,0,1.2,0,1.5
		c0,0.3,0.2,0.7,0.3,1.1l-2.1-0.1c0-0.1-0.1-0.3-0.2-0.6c0-0.1,0-0.2-0.1-0.2c-0.4,0.3-0.8,0.6-1.2,0.7c-0.4,0.2-0.8,0.2-1.3,0.2
		c-0.8,0-1.4-0.3-1.9-0.8c-0.4-0.5-0.6-1-0.6-1.7c0-0.4,0.2-0.8,0.4-1.2c0.2-0.3,0.5-0.6,0.9-0.8c0.4-0.2,1-0.3,1.7-0.4
		c1-0.1,1.7-0.3,2-0.4l0-0.2c0-0.4-0.1-0.7-0.2-0.9c-0.2-0.2-0.6-0.3-1.1-0.3c-0.4,0-0.7,0-0.9,0.2
		C281.4,18.3,281.2,18.5,281.1,18.9z M283.8,20.7c-0.3,0.1-0.7,0.2-1.3,0.2c-0.6,0.1-1,0.2-1.2,0.3c-0.3,0.2-0.4,0.4-0.4,0.7
		c0,0.3,0.1,0.5,0.3,0.8c0.2,0.2,0.5,0.3,0.8,0.4c0.4,0,0.7-0.1,1.1-0.3c0.3-0.2,0.4-0.4,0.5-0.7c0.1-0.2,0.1-0.5,0.1-1L283.8,20.7z
		 M289.6,24.8l-2.1-0.1l0.4-7.8l1.9,0.1l-0.1,1.1c0.4-0.5,0.7-0.8,0.9-1c0.3-0.2,0.6-0.2,0.9-0.2c0.5,0,0.9,0.2,1.3,0.5l-0.7,1.8
		c-0.3-0.2-0.7-0.4-1-0.4c-0.3,0-0.5,0.1-0.8,0.2c-0.2,0.1-0.4,0.4-0.5,0.8c-0.1,0.4-0.2,1.3-0.3,2.6L289.6,24.8z M295.5,25.2
		l-2.1-0.1l0.4-7.8l1.9,0.1l-0.1,1.1c0.4-0.5,0.7-0.8,0.9-1c0.3-0.2,0.6-0.2,0.9-0.2c0.5,0,0.9,0.2,1.3,0.5l-0.7,1.8
		c-0.3-0.2-0.7-0.4-1-0.4c-0.3,0-0.5,0.1-0.8,0.2c-0.2,0.1-0.4,0.4-0.5,0.8c-0.1,0.4-0.2,1.3-0.3,2.6L295.5,25.2z M298.6,25.3
		l0.1-2.1l2.1,0.1l-0.1,2.1L298.6,25.3z M303.1,17.7l1.9,0.1l-0.1,1.1c0.7-0.8,1.6-1.2,2.5-1.1c0.5,0,0.9,0.2,1.3,0.4
		c0.4,0.2,0.6,0.6,0.9,1c0.4-0.4,0.8-0.7,1.2-0.9c0.4-0.2,0.8-0.3,1.3-0.2c0.6,0,1.1,0.2,1.4,0.4c0.4,0.3,0.7,0.6,0.8,1.1
		c0.1,0.3,0.2,0.9,0.1,1.6l-0.3,5l-2.1-0.1l0.2-4.5c0-0.8,0-1.3-0.1-1.5c-0.2-0.3-0.5-0.5-0.9-0.5c-0.3,0-0.6,0.1-0.8,0.2
		c-0.3,0.2-0.5,0.4-0.6,0.7c-0.1,0.3-0.2,0.9-0.3,1.6l-0.2,3.8l-2.1-0.1l0.2-4.3c0-0.8,0-1.3,0-1.5c-0.1-0.2-0.2-0.4-0.3-0.5
		c-0.1-0.1-0.4-0.2-0.6-0.2c-0.3,0-0.6,0.1-0.9,0.2c-0.3,0.2-0.5,0.4-0.6,0.7c-0.1,0.3-0.2,0.9-0.3,1.6l-0.2,3.8l-2.1-0.1
		L303.1,17.7z M318.1,20.9l-1.9-0.4c0.3-0.7,0.6-1.3,1.2-1.6s1.3-0.5,2.3-0.4c0.9,0.1,1.6,0.2,2.1,0.4c0.4,0.2,0.7,0.5,0.9,0.9
		c0.2,0.3,0.2,1,0.2,1.9l-0.2,2.4c0,0.7,0,1.2,0,1.5c0,0.3,0.2,0.7,0.3,1.1l-2.1-0.1c0-0.1-0.1-0.3-0.2-0.6c0-0.1,0-0.2-0.1-0.2
		c-0.4,0.3-0.8,0.6-1.2,0.7c-0.4,0.2-0.9,0.2-1.3,0.2c-0.8,0-1.4-0.3-1.9-0.8c-0.4-0.5-0.6-1-0.6-1.7c0-0.4,0.2-0.8,0.4-1.2
		c0.2-0.3,0.5-0.6,0.9-0.7c0.4-0.2,1-0.3,1.7-0.4c1-0.1,1.7-0.3,2-0.4l0-0.2c0-0.4-0.1-0.7-0.2-0.9c-0.2-0.2-0.6-0.3-1.1-0.3
		c-0.4,0-0.7,0-0.9,0.2C318.4,20.3,318.2,20.6,318.1,20.9z M320.8,22.8c-0.3,0.1-0.7,0.2-1.3,0.2c-0.6,0.1-1,0.2-1.1,0.3
		c-0.3,0.2-0.4,0.4-0.4,0.7c0,0.3,0.1,0.5,0.3,0.8c0.2,0.2,0.5,0.3,0.8,0.4c0.4,0,0.7-0.1,1.1-0.3c0.3-0.2,0.4-0.4,0.5-0.7
		c0.1-0.2,0.1-0.5,0.1-1L320.8,22.8z M325,18.9L327,19l-0.1,1.2c0.3-0.4,0.6-0.7,1.1-0.9c0.4-0.2,0.9-0.3,1.4-0.3
		c0.9,0.1,1.7,0.4,2.3,1.2c0.6,0.7,0.9,1.8,0.8,3c-0.1,1.3-0.4,2.3-1.1,3c-0.7,0.7-1.5,1-2.4,1c-0.4,0-0.8-0.1-1.2-0.3
		c-0.3-0.2-0.7-0.5-1.1-0.9l-0.2,4l-2.1-0.1L325,18.9z M326.9,22.8c0,0.9,0.1,1.5,0.4,2c0.3,0.4,0.7,0.7,1.2,0.7
		c0.5,0,0.9-0.1,1.2-0.5c0.3-0.4,0.5-1,0.6-1.9c0-0.8-0.1-1.4-0.4-1.9c-0.3-0.4-0.7-0.6-1.2-0.7c-0.5,0-0.9,0.1-1.3,0.5
		C327.1,21.5,326.9,22,326.9,22.8z M337.2,30.6l-1.4-0.1c-0.7-1.2-1.2-2.4-1.5-3.6c-0.3-1.2-0.5-2.4-0.4-3.6c0.1-1.4,0.4-2.8,1-4
		c0.5-1.1,1.1-2.1,1.8-3l1.4,0.1c-0.8,1.5-1.3,2.7-1.6,3.7c-0.3,1-0.5,2.1-0.6,3.3c0,0.8,0,1.6,0.1,2.5c0.1,0.9,0.3,1.7,0.5,2.5
		C336.5,28.9,336.8,29.7,337.2,30.6z M338.9,27.5l0.1-2.1l2.1,0.1l-0.1,2.1L338.9,27.5z M343.1,27.8l0.1-2.1l2.1,0.1l-0.1,2.1
		L343.1,27.8z M347.3,28l0.1-2.1l2.1,0.1l-0.1,2.1L347.3,28z M350.8,31.4c0.5-0.9,0.8-1.5,1-2c0.2-0.5,0.4-1,0.6-1.6
		c0.2-0.6,0.3-1.2,0.4-1.7c0.1-0.5,0.2-1.1,0.2-1.7c0.1-1.2,0-2.3-0.2-3.3c-0.2-1.1-0.6-2.4-1.2-3.9l1.4,0.1
		c0.7,1.1,1.2,2.3,1.5,3.5c0.3,1.2,0.5,2.4,0.4,3.6c-0.1,1-0.3,2.1-0.7,3.3c-0.4,1.3-1.1,2.6-2,3.8L350.8,31.4z M76.8,176l-2,0.4
		l-1.5-7.7l1.9-0.4l0.2,1.1c0.2-0.6,0.4-1,0.7-1.2c0.2-0.2,0.5-0.4,0.8-0.4c0.5-0.1,0.9-0.1,1.4,0.1l-0.3,1.9
		c-0.4-0.2-0.7-0.2-1-0.1c-0.3,0.1-0.5,0.2-0.7,0.4c-0.2,0.2-0.3,0.5-0.3,0.9c0,0.4,0.1,1.3,0.3,2.6L76.8,176z M84.6,171.9l2.1-0.1
		c-0.1,0.8-0.4,1.4-0.9,1.9c-0.5,0.5-1.2,0.8-2,1c-1.3,0.3-2.4,0-3.2-0.7c-0.6-0.6-1.1-1.4-1.3-2.5c-0.3-1.3-0.1-2.3,0.4-3.2
		c0.5-0.9,1.3-1.4,2.3-1.6c1.1-0.2,2.1,0,2.9,0.6c0.8,0.6,1.4,1.7,1.6,3.3l-5.1,1c0.1,0.6,0.4,1,0.8,1.3c0.4,0.3,0.8,0.4,1.3,0.3
		c0.3-0.1,0.6-0.2,0.8-0.4C84.5,172.6,84.6,172.3,84.6,171.9z M84.3,169.8c-0.1-0.6-0.4-1-0.7-1.3c-0.4-0.2-0.7-0.3-1.2-0.3
		c-0.4,0.1-0.8,0.3-1,0.7c-0.2,0.4-0.3,0.8-0.2,1.4L84.3,169.8z M90.9,165.2l0.3,1.6l-1.4,0.3l0.6,3.1c0.1,0.6,0.2,1,0.3,1.1
		c0,0.1,0.1,0.2,0.2,0.2c0.1,0,0.2,0.1,0.4,0c0.2,0,0.5-0.2,0.8-0.4l0.5,1.5c-0.4,0.3-0.9,0.5-1.6,0.6c-0.4,0.1-0.7,0.1-1,0
		c-0.3-0.1-0.6-0.2-0.7-0.3c-0.2-0.2-0.3-0.4-0.4-0.7c-0.1-0.2-0.2-0.7-0.3-1.4l-0.7-3.4l-0.9,0.2l-0.3-1.6l0.9-0.2l-0.3-1.5
		l1.8-1.6l0.5,2.7L90.9,165.2z M98.9,171.6l-0.2-1.2c-0.2,0.5-0.5,0.9-0.9,1.2c-0.4,0.3-0.9,0.5-1.4,0.6c-0.5,0.1-1,0.1-1.5-0.1
		c-0.5-0.1-0.8-0.4-1.1-0.8c-0.3-0.4-0.5-0.9-0.6-1.7l-1-4.9l2-0.4L95,168c0.2,1.1,0.4,1.7,0.5,2c0.1,0.2,0.3,0.4,0.5,0.5
		c0.2,0.1,0.5,0.1,0.8,0.1c0.3-0.1,0.6-0.2,0.9-0.5c0.2-0.2,0.4-0.5,0.4-0.8c0-0.3,0-1-0.3-2.1l-0.6-3.3l2-0.4l1.5,7.7L98.9,171.6z
		 M104.9,170.4l-2,0.4l-1.5-7.7l1.9-0.4l0.2,1.1c0.2-0.6,0.4-1,0.7-1.2c0.2-0.2,0.5-0.4,0.8-0.4c0.5-0.1,0.9-0.1,1.4,0.1l-0.3,1.9
		c-0.4-0.2-0.7-0.2-1-0.1c-0.3,0.1-0.5,0.2-0.7,0.4c-0.2,0.2-0.3,0.5-0.3,0.9c0,0.4,0.1,1.3,0.3,2.6L104.9,170.4z M115.7,168.2
		l-2,0.4l-0.8-3.9c-0.2-0.8-0.3-1.4-0.5-1.6c-0.1-0.2-0.3-0.4-0.5-0.5c-0.2-0.1-0.5-0.1-0.7-0.1c-0.4,0.1-0.7,0.2-0.9,0.5
		c-0.2,0.2-0.4,0.5-0.4,0.9c0,0.3,0,0.9,0.2,1.8l0.7,3.5l-2,0.4l-1.5-7.7l1.9-0.4l0.2,1.1c0.5-1,1.3-1.6,2.3-1.8
		c0.4-0.1,0.9-0.1,1.3,0c0.4,0.1,0.7,0.2,1,0.5c0.2,0.2,0.4,0.5,0.6,0.8c0.1,0.3,0.3,0.8,0.4,1.3L115.7,168.2z M40.8,141.3h-2.1v-4
		c0-0.8,0-1.4-0.1-1.6c-0.1-0.2-0.2-0.4-0.4-0.6c-0.2-0.1-0.4-0.2-0.7-0.2c-0.4,0-0.7,0.1-1,0.3c-0.3,0.2-0.5,0.5-0.6,0.8
		s-0.2,0.9-0.2,1.8v3.6h-2.1v-7.9h1.9v1.2c0.7-0.9,1.5-1.3,2.6-1.3c0.5,0,0.9,0.1,1.3,0.2c0.4,0.2,0.7,0.4,0.9,0.6
		c0.2,0.3,0.3,0.5,0.4,0.9c0.1,0.3,0.1,0.8,0.1,1.4V141.3z M42.9,133.4h1.9v1.2c0.3-0.4,0.6-0.7,1-1c0.4-0.2,0.9-0.4,1.4-0.4
		c0.9,0,1.7,0.4,2.3,1.1c0.6,0.7,1,1.7,1,3c0,1.3-0.3,2.3-1,3.1c-0.6,0.7-1.4,1.1-2.3,1.1c-0.4,0-0.8-0.1-1.2-0.3
		c-0.4-0.2-0.7-0.5-1.1-0.9v4h-2.1V133.4z M44.9,137.2c0,0.9,0.2,1.5,0.5,2c0.4,0.4,0.8,0.6,1.3,0.6c0.5,0,0.9-0.2,1.2-0.6
		c0.3-0.4,0.5-1,0.5-1.9c0-0.8-0.2-1.4-0.5-1.8s-0.7-0.6-1.2-0.6c-0.5,0-0.9,0.2-1.3,0.6C45.1,135.9,44.9,136.4,44.9,137.2z
		 M52,133.4h1.9v1.1c0.7-0.8,1.5-1.3,2.4-1.3c0.5,0,0.9,0.1,1.3,0.3c0.4,0.2,0.7,0.5,0.9,0.9c0.3-0.4,0.7-0.7,1.1-0.9
		c0.4-0.2,0.8-0.3,1.3-0.3c0.6,0,1.1,0.1,1.5,0.4c0.4,0.2,0.7,0.6,0.9,1c0.1,0.3,0.2,0.9,0.2,1.6v5h-2.1v-4.5c0-0.8-0.1-1.3-0.2-1.5
		c-0.2-0.3-0.5-0.4-0.9-0.4c-0.3,0-0.6,0.1-0.8,0.3c-0.3,0.2-0.4,0.4-0.6,0.8c-0.1,0.3-0.2,0.9-0.2,1.6v3.8h-2.1V137
		c0-0.8,0-1.3-0.1-1.5c-0.1-0.2-0.2-0.4-0.3-0.5c-0.2-0.1-0.4-0.2-0.6-0.2c-0.3,0-0.6,0.1-0.9,0.3c-0.3,0.2-0.4,0.4-0.6,0.7
		c-0.1,0.3-0.2,0.9-0.2,1.6v3.8H52V133.4z M73.5,133.4v1.7H72v3.2c0,0.6,0,1,0,1.1c0,0.1,0.1,0.2,0.2,0.3c0.1,0.1,0.2,0.1,0.4,0.1
		c0.2,0,0.5-0.1,0.8-0.2l0.2,1.6c-0.5,0.2-1,0.3-1.6,0.3c-0.4,0-0.7-0.1-1-0.2c-0.3-0.1-0.5-0.3-0.7-0.5c-0.1-0.2-0.2-0.5-0.3-0.8
		c0-0.2-0.1-0.7-0.1-1.5v-3.4h-1v-1.7h1v-1.6l2.1-1.2v2.8H73.5z M79.5,138.8l2.1,0.3c-0.3,0.8-0.7,1.3-1.3,1.7
		c-0.6,0.4-1.3,0.6-2.2,0.6c-1.4,0-2.4-0.4-3-1.3c-0.5-0.7-0.8-1.6-0.8-2.7c0-1.3,0.3-2.3,1-3.1c0.7-0.7,1.5-1.1,2.6-1.1
		c1.2,0,2.1,0.4,2.8,1.2c0.7,0.8,1,2,1,3.5h-5.2c0,0.6,0.2,1.1,0.5,1.4c0.3,0.3,0.7,0.5,1.2,0.5c0.3,0,0.6-0.1,0.8-0.3
		C79.2,139.5,79.4,139.2,79.5,138.8z M79.6,136.7c0-0.6-0.2-1.1-0.5-1.4c-0.3-0.3-0.7-0.5-1.1-0.5c-0.5,0-0.8,0.2-1.1,0.5
		s-0.4,0.8-0.4,1.3H79.6z M82.6,139l2.1-0.3c0.1,0.4,0.3,0.7,0.5,0.9c0.3,0.2,0.7,0.3,1.1,0.3c0.5,0,0.9-0.1,1.2-0.3
		c0.2-0.1,0.3-0.3,0.3-0.6c0-0.2,0-0.3-0.1-0.4c-0.1-0.1-0.3-0.2-0.7-0.3c-1.7-0.4-2.7-0.7-3.2-1c-0.6-0.4-0.9-1-0.9-1.8
		c0-0.7,0.3-1.3,0.8-1.7c0.5-0.5,1.4-0.7,2.5-0.7c1.1,0,1.9,0.2,2.4,0.5c0.5,0.4,0.9,0.9,1.1,1.6l-2,0.4c-0.1-0.3-0.2-0.5-0.5-0.7
		c-0.2-0.2-0.6-0.2-1-0.2c-0.5,0-0.9,0.1-1.2,0.2c-0.2,0.1-0.2,0.2-0.2,0.4c0,0.1,0.1,0.3,0.2,0.4c0.2,0.1,0.8,0.3,1.9,0.6
		c1.1,0.3,1.9,0.6,2.3,0.9c0.4,0.4,0.7,0.9,0.7,1.5c0,0.7-0.3,1.3-0.9,1.9c-0.6,0.5-1.5,0.8-2.7,0.8c-1.1,0-1.9-0.2-2.5-0.7
		C83.2,140.4,82.8,139.8,82.6,139z M95.4,133.4v1.7H94v3.2c0,0.6,0,1,0,1.1c0,0.1,0.1,0.2,0.2,0.3c0.1,0.1,0.2,0.1,0.4,0.1
		c0.2,0,0.5-0.1,0.8-0.2l0.2,1.6c-0.5,0.2-1,0.3-1.6,0.3c-0.4,0-0.7-0.1-1-0.2c-0.3-0.1-0.5-0.3-0.7-0.5c-0.1-0.2-0.2-0.5-0.3-0.8
		c0-0.2-0.1-0.7-0.1-1.5v-3.4h-1v-1.7h1v-1.6l2.1-1.2v2.8H95.4z M70.9,12.7v-1.9H73v1.9H70.9z M70.9,21.6v-7.9H73v7.9H70.9z
		 M74.2,13.8h1.2v-0.6c0-0.7,0.1-1.2,0.2-1.5c0.1-0.3,0.4-0.6,0.8-0.8c0.4-0.2,0.9-0.3,1.4-0.3c0.6,0,1.2,0.1,1.7,0.3l-0.3,1.5
		c-0.3-0.1-0.6-0.1-1-0.1c-0.3,0-0.5,0.1-0.6,0.2c-0.1,0.1-0.2,0.4-0.2,0.8v0.6H79v1.6h-1.6v6.2h-2.1v-6.2h-1.2V13.8z M87.8,24.8
		h-1.4c-0.8-1.1-1.3-2.3-1.7-3.6c-0.4-1.2-0.6-2.4-0.6-3.6c0-1.4,0.2-2.8,0.7-4c0.4-1.1,1-2.1,1.6-3.1h1.4c-0.7,1.5-1.1,2.8-1.4,3.8
		c-0.3,1-0.4,2.2-0.4,3.3c0,0.8,0.1,1.6,0.2,2.5c0.2,0.8,0.4,1.7,0.6,2.4C87.1,23.1,87.4,23.9,87.8,24.8z M89.4,21.6v-2.1h2.1v2.1
		H89.4z M93.6,21.6v-2.1h2.1v2.1H93.6z M97.8,21.6v-2.1h2.1v2.1H97.8z M101.5,24.8c0.4-0.9,0.7-1.6,0.9-2s0.3-1,0.5-1.6
		c0.1-0.6,0.2-1.2,0.3-1.7c0.1-0.6,0.1-1.1,0.1-1.7c0-1.2-0.1-2.3-0.4-3.3c-0.3-1-0.7-2.3-1.4-3.8h1.4c0.7,1.1,1.3,2.2,1.7,3.4
		s0.6,2.4,0.6,3.6c0,1-0.2,2.1-0.5,3.3c-0.4,1.3-1,2.6-1.8,3.9H101.5z M83.6,69.1l2.3,0.4c-0.3,0.8-0.7,1.5-1.4,1.9
		c-0.6,0.4-1.4,0.6-2.3,0.6c-1.5,0-2.6-0.5-3.3-1.5c-0.6-0.8-0.8-1.8-0.8-2.9c0-1.4,0.4-2.5,1.1-3.3c0.7-0.8,1.7-1.2,2.8-1.2
		c1.3,0,2.3,0.4,3,1.3c0.7,0.8,1.1,2.1,1.1,3.9h-5.7c0,0.7,0.2,1.2,0.5,1.6c0.3,0.4,0.8,0.6,1.3,0.6c0.4,0,0.7-0.1,0.9-0.3
		C83.3,69.9,83.5,69.6,83.6,69.1z M83.7,66.8c0-0.7-0.2-1.2-0.5-1.5c-0.3-0.3-0.7-0.5-1.2-0.5c-0.5,0-0.9,0.2-1.2,0.5
		s-0.5,0.8-0.5,1.5H83.7z M87.8,71.8V60.1h2.3v11.8H87.8z M91.6,69.4l2.3-0.3c0.1,0.4,0.3,0.8,0.6,1c0.3,0.2,0.7,0.3,1.2,0.3
		c0.6,0,1-0.1,1.3-0.3c0.2-0.2,0.3-0.4,0.3-0.6c0-0.2-0.1-0.3-0.2-0.4c-0.1-0.1-0.4-0.2-0.8-0.3c-1.8-0.4-3-0.8-3.5-1.1
		c-0.7-0.5-1-1.1-1-1.9c0-0.7,0.3-1.4,0.9-1.9c0.6-0.5,1.5-0.8,2.7-0.8c1.2,0,2,0.2,2.6,0.6c0.6,0.4,1,0.9,1.2,1.7l-2.1,0.4
		c-0.1-0.3-0.3-0.6-0.5-0.8s-0.6-0.3-1.1-0.3c-0.6,0-1,0.1-1.3,0.2c-0.2,0.1-0.3,0.3-0.3,0.5c0,0.2,0.1,0.3,0.2,0.4
		c0.2,0.2,0.9,0.4,2.1,0.6s2,0.6,2.5,1c0.5,0.4,0.7,1,0.7,1.7c0,0.8-0.3,1.5-1,2C97.9,71.8,97,72,95.7,72c-1.2,0-2.1-0.2-2.8-0.7
		C92.2,70.9,91.8,70.2,91.6,69.4z M106.5,69.1l2.3,0.4c-0.3,0.8-0.7,1.5-1.4,1.9c-0.6,0.4-1.4,0.6-2.3,0.6c-1.5,0-2.6-0.5-3.3-1.5
		c-0.6-0.8-0.8-1.8-0.8-2.9c0-1.4,0.4-2.5,1.1-3.3c0.7-0.8,1.7-1.2,2.8-1.2c1.3,0,2.3,0.4,3,1.3c0.7,0.8,1.1,2.1,1.1,3.9h-5.7
		c0,0.7,0.2,1.2,0.5,1.6c0.3,0.4,0.8,0.6,1.3,0.6c0.4,0,0.7-0.1,0.9-0.3C106.2,69.9,106.4,69.6,106.5,69.1z M106.6,66.8
		c0-0.7-0.2-1.2-0.5-1.5c-0.3-0.3-0.7-0.5-1.2-0.5c-0.5,0-0.9,0.2-1.2,0.5s-0.5,0.8-0.5,1.5H106.6z M321.5,55.2l-7.4-3.2v-1.8
		l7.4-3.2v2.1l-5.2,2l5.2,2.1V55.2z M330.5,56.5h-1.9v-1.2c-0.3,0.4-0.7,0.8-1.1,1c-0.4,0.2-0.9,0.3-1.3,0.3c-0.9,0-1.7-0.4-2.3-1.1
		c-0.6-0.7-1-1.7-1-3c0-1.3,0.3-2.3,0.9-3c0.6-0.7,1.4-1,2.4-1c0.9,0,1.6,0.4,2.3,1.1v-3.9h2.1V56.5z M325,52.4
		c0,0.8,0.1,1.4,0.3,1.8c0.3,0.5,0.8,0.8,1.4,0.8c0.5,0,0.9-0.2,1.2-0.6c0.3-0.4,0.5-1,0.5-1.8c0-0.9-0.2-1.6-0.5-1.9
		c-0.3-0.4-0.7-0.6-1.3-0.6c-0.5,0-0.9,0.2-1.2,0.6C325.1,51,325,51.6,325,52.4z M332.6,47.5v-1.9h2.1v1.9H332.6z M332.6,56.5v-7.9
		h2.1v7.9H332.6z M338.9,56.5l-3.2-7.9h2.2l1.5,4l0.4,1.3c0.1-0.3,0.2-0.6,0.2-0.7c0.1-0.2,0.1-0.4,0.2-0.7l1.5-4h2.1l-3.1,7.9
		H338.9z M344.8,55.2v-2.1l5.2-2l-5.2-2V47l7.4,3.2V52L344.8,55.2z M317.2,147.2l2.6-7.9l1.7,1.2l-1.8,5.1l4.1-3.4l1.7,1.2l-1.9,5
		l4.3-3.4l1.7,1.2l-6.7,5l-1.6-1.2l1.9-5l-4.1,3.4L317.2,147.2z M333.8,145.5l-2.3,3.3c1-0.3,1.9-0.1,2.7,0.4c0.4,0.3,0.7,0.6,0.9,1
		c0.2,0.4,0.3,0.7,0.3,1.1c0,0.3-0.1,0.7-0.2,1c-0.1,0.3-0.4,0.8-0.8,1.3l-2.7,3.8l-1.7-1.2l2.4-3.4c0.5-0.7,0.8-1.1,0.8-1.4
		c0.1-0.2,0.1-0.5,0-0.7c-0.1-0.2-0.3-0.4-0.5-0.6c-0.3-0.2-0.6-0.3-0.9-0.3c-0.3,0-0.6,0.1-0.9,0.3c-0.3,0.2-0.6,0.6-1,1.1
		l-2.3,3.2l-1.7-1.2l6.4-8.9L333.8,145.5z M333.3,158.7l4.6-6.5l1.7,1.2l-4.6,6.5L333.3,158.7z M338.5,151.3l1.1-1.6l1.7,1.2
		l-1.1,1.6L338.5,151.3z M336.8,161.1l6.4-8.9l1.7,1.2l-6.4,8.9L336.8,161.1z M345.5,164.2l1.5,1.5c-0.7,0.5-1.4,0.7-2.1,0.7
		c-0.7,0-1.4-0.3-2.1-0.8c-1.1-0.8-1.7-1.8-1.7-2.9c0-0.9,0.3-1.8,0.9-2.7c0.8-1.1,1.6-1.7,2.6-1.9c1-0.2,1.9,0,2.8,0.6
		c1,0.7,1.5,1.5,1.6,2.6c0.1,1-0.3,2.2-1.3,3.5l-4.3-3.1c-0.3,0.5-0.5,1-0.4,1.5c0.1,0.5,0.3,0.8,0.7,1.1c0.3,0.2,0.5,0.3,0.8,0.3
		C344.8,164.6,345.1,164.5,345.5,164.2z M346.8,162.6c0.3-0.5,0.5-1,0.4-1.4c-0.1-0.4-0.3-0.8-0.6-1c-0.4-0.3-0.8-0.4-1.2-0.3
		c-0.4,0.1-0.8,0.4-1.1,0.9L346.8,162.6z"/>
	<g>
		<g>
			<path class="st0" d="M308.7,103.8c-0.4,0-0.6,0.1-0.8,0.2c-0.2,0.1-0.3,0.2-0.5,0.4c-0.1,0.2-0.2,0.5-0.3,0.8
				c0,0.2-0.1,0.6-0.1,1.2c0,1,0,1.6-0.1,2s-0.2,0.7-0.5,0.9c-0.2,0.2-0.6,0.4-1,0.5c-0.3,0.1-0.8,0.1-1.4,0.1h-0.4v-1.8
				c0.5,0,0.9,0,1-0.1c0.2-0.1,0.3-0.2,0.4-0.3c0.1-0.1,0.1-0.3,0.1-0.6s0-0.9,0.1-1.7c0-0.5,0.1-0.9,0.2-1.2
				c0.1-0.3,0.3-0.6,0.4-0.8c0.2-0.2,0.4-0.4,0.7-0.6c-0.4-0.2-0.6-0.5-0.8-0.7c-0.2-0.3-0.4-0.7-0.5-1.2c-0.1-0.3-0.1-1.1-0.1-2.3
				c0-0.4,0-0.6-0.1-0.7c-0.1-0.1-0.2-0.2-0.3-0.3c-0.2-0.1-0.5-0.1-1.1-0.1v-1.8h0.4c0.7,0,1.2,0.1,1.5,0.2
				c0.4,0.1,0.7,0.3,0.9,0.5c0.2,0.2,0.4,0.6,0.5,0.9c0.1,0.4,0.1,0.9,0.1,1.7c0,0.9,0,1.5,0.1,1.8c0.1,0.4,0.3,0.7,0.5,0.8
				c0.2,0.2,0.6,0.3,1,0.3V103.8z"/>
		</g>
		<path class="st2" d="M343.9,214.7c-2.7,18-3.7,24.1-5.2,31.9c-0.4,2-1.3,4.6-2.6,6.5c-1.6,2.3-3.9,3.4-6.6,0.8
			c-3.9,17-12.4,45.5-31.2,57.3c-5.1,3.2-11,5.2-17.8,5.4c-6.8,0.2-13-1.9-18.4-5.4c-16.9-10.8-27.7-34.9-32.3-46.5
			c0.5-0.3,0.9-0.7,1.3-1c0.1-0.1,0.3-0.2,0.4-0.3c0.1-0.1,0.2-0.2,0.3-0.3c0.6-0.8,0.9-1.7,0.9-2.6c0-1.8-1.2-3.7-3.3-4.1l-3.3-0.5
			c0.3,0,0.6,0.2,0.8,0.3l-8.5-1.2l-37.5-5.5l-10.1-1.5l0.8-30.7c5.7-3.5,10.6-8.2,13.7-14.2c0-0.1,0-0.2-0.1-0.2
			c0,0,0.1-0.1,0.1-0.2c0.4,1.6,1.6,2.7,3.2,3.1c0.1,0,0.2,0,0.3,0.1c0.1,0,0.2,0,0.2,0c0.3,0,0.5,0,0.7,0c0.7-0.1,1.1-0.4,1.8-0.5
			c0.1,0,0.2,0,0.3,0c0,0,0,0,0,0c0.1,0,0.2,0,0.3,0c0.1,0,0.2,0,0.3,0.1c0.3,0.1,0.5,0.2,0.9,0.3c0.1,0,0.2,0.1,0.3,0.1
			c0.1,0,0.2,0,0.3,0.1c0.1,0,0.1,0,0.2,0c0,0,0,0,0,0c0.1,0,0.3,0,0.4,0.1c0.2,0,0.3,0,0.5,0c0.2,0,0.4,0,0.5,0
			c1-0.1,1.7-0.5,2.3-0.6c0.1,0,0.2,0,0.2,0c0.1,0,0.2,0,0.4,0c0.1,0,0.2,0,0.3,0c0.1,0,0.2,0,0.2,0.1c0.1,0,0.2,0.1,0.2,0.1
			c0.2,0.1,0.4,0.2,0.7,0.2c0,0,0,0,0,0c0.1,0,0.2,0,0.3,0.1c0.1,0,0.2,0,0.3,0c0.2,0,0.4,0,0.6,0c0.1,0,0.1,0,0.2,0
			c0.1,0,0.1,0,0.2,0c1.7-0.2,3-1.7,3.5-3.3c0,0,0,0.1,0.1,0.1c0,0.1,0,0.1,0,0.2c7.1,13.8,22.9,20.6,38.4,22.3
			c0.2-0.7,0.5-1.4,0.7-2.1c0.2-0.6,0.4-1.2,0.5-1.8c0.3-1,0.6-2.1,0.9-3.1c0.2-0.6,0.3-1.2,0.5-1.8c0.1-0.6,0.3-1.1,0.4-1.7
			c0,0,0-0.1,0-0.1c0.1-0.4,0.2-0.9,0.3-1.3c0,0,0-0.1,0-0.2c0,0,0-0.1,0-0.1c0-0.1,0-0.1,0-0.2c0-0.1,0.1-0.3,0.1-0.4
			c0.1-0.4,0.2-0.8,0.2-1.2c0.3-1.7,0.6-3.5,0.9-5.2c0.1-0.4,0.1-0.8,0.1-1.2c0.1-0.8,0.2-1.5,0.2-2.3c0-0.5,0.1-1,0.1-1.5
			c0-0.7,0.1-1.5,0.1-2.2c0-0.8,0-1.6,0-2.4c0-4-0.4-8-1.1-11.9c-0.6-3.2-1.5-6.3-2.8-9.3l-0.1-0.2c-0.9-2.6-2.5-5.7-3.8-7.5
			c0,0,0,0,0,0c-0.1-0.1-0.1-0.2-0.2-0.3c0,0,0,0-0.1,0c0,0,0,0,0,0c-8,1.7-14.8,6-20.8,10.4c-0.5,0.3-0.9,0.7-1.4,1
			c-0.5,0.3-0.9,0.7-1.4,1.1c-0.4,0.3-0.7,0.6-1.1,0.8c-0.3,0.2-0.6,0.5-0.9,0.7c0,0-0.1,0.1-0.1,0.1c-5.3,4.1-8.1,6-9.8,6.8
			c-0.4-1.8-1.6-3.4-3.5-3.6h0c0,0,0,0,0,0c-0.1,0-0.2,0-0.3,0c-0.2,0-0.5,0-0.6,0c-0.1,0-0.2,0-0.3,0c-0.1,0-0.2,0-0.3,0.1
			c0,0,0,0,0,0c-0.2,0.1-0.5,0.2-0.7,0.2c-0.1,0-0.2,0.1-0.2,0.1c-0.1,0-0.1,0-0.2,0.1c-0.1,0-0.2,0-0.3,0c-0.1,0-0.2,0-0.4,0
			c-0.1,0-0.2,0-0.2,0c-0.6-0.1-1.2-0.5-2.3-0.6c-0.2,0-0.3,0-0.5,0c-0.2,0-0.4,0-0.5,0c-0.2,0-0.3,0-0.4,0.1c0,0,0,0,0,0
			c-0.1,0-0.1,0-0.2,0c0,0-0.1,0-0.1,0c-0.1,0-0.2,0.1-0.3,0.1c-0.4,0.1-0.6,0.3-0.9,0.4c-0.1,0-0.2,0-0.3,0.1c-0.1,0-0.2,0-0.3,0
			c0,0,0,0,0,0c-0.1,0-0.2,0-0.3,0c-0.7-0.1-1.1-0.4-1.8-0.5c-0.2,0-0.4,0-0.7,0c-0.2,0-0.3,0-0.5,0.1c-1.8,0.4-2.8,2.1-3.1,3.8
			c-1-0.5-2-1.2-3-1.9c-0.3-0.2-0.7-0.5-1.1-0.8c0,0,0,0,0,0c0,0-0.1,0-0.1-0.1c-0.4-0.3-0.8-0.6-1.3-0.9c-0.3-0.3-0.7-0.5-1-0.8
			c-0.4-0.3-0.8-0.6-1.2-0.9c-2.1-1.6-4.3-3.4-6.7-5.1c-0.6-0.4-1.1-0.8-1.7-1.2c-0.5-0.4-1.1-0.8-1.6-1.1c-0.6-0.4-1.3-0.9-2-1.3
			c-2.2-1.4-4.5-2.7-6.9-3.8c-2.9-1.4-5.9-2.5-9.1-3.2c0,0,0,0,0,0c0,0,0,0-0.1,0c-0.6,1-1.2,1.9-1.7,2.9c0.1-1.6,0.3-3.6-0.3-4.1
			c0-0.2-0.1-0.2-0.1-0.2c-0.9-0.3-1.5,1.7-1.7,2c-0.7,0.6,0.4-1.8,0.5-2.7c0.1-0.6,0.1-1.3,0.2-1.9c0-0.2,0-0.4,0.1-0.6
			c0.1-1.7,0.2-3.4,0-5c-0.1-0.5-1.2,1.2-1.5,0.7c-0.6-1.1,0.2-3.4,0-4.7c-0.4-2.6-2-5.3-3.2-7.6c-4.8-9.5-9.1-19.9-11.8-30.6
			c-5.3-21-3.3-39.5,8.1-56.3c3.5-5.1,6.8-10.7,12-14.2c-3.1-0.4-6,0.1-9.5,1.7c3.2-5.6,5.7-6.8,9.7-7.8c0.1-0.6-7.4-3.3-13.5-1
			c5.5-8.9,20.4-7.7,20.4-9.8c0-2.5-6.7-3.3-12-2.4c8-6.6,19.3-6.5,28.5-2.7c-3.8-4-3.7-9.4-1.2-12.3c6.2,6.1,17.1,10.4,30.4,10.5
			c-2.8-0.9-4-3.4-2.8-5.8c3,2.7,14.1,5.9,26,9.9c62.8,21,84,85.6,84,129.2c0,2.6-0.1,4.5,0,7.1c6.4,0.7,12.8,3.1,18.8,8
			C340.9,179,346.6,196.7,343.9,214.7z"/>
		<g>
			<path class="st3" d="M263.6,312.3c-19.4-0.3-81.7,0-98.5-0.1c1.6-0.2,3-0.8,4.3-1.7c10.4-7.9,44.2-33.5,60.2-45.6
				C234.3,276.3,244.9,301.5,263.6,312.3z"/>
			<path class="st3" d="M324.7,271.2c-0.7,12.8-2.7,26-7.9,41h-20.2C311.3,304,319.7,286.6,324.7,271.2z"/>
		</g>
		<path class="st3" d="M343.7,215.2c-2.7,18-3.7,24.1-5.2,31.9c-0.8,4.3-4.2,12.1-9.2,7.3c-27.4-12.8-49.8-13.2-60.6-14.1
			c-0.7-0.1-1.3-0.2-1.9-0.3c-0.6,1.5-2.2,6-2.4,8.8c-7.6-6.4-16.7-11.8-26.7-14.1c-18.8-4.4-34.9-1.5-48.1,7.8
			c-1.4,1-2.8,2-4.1,3.1c-5-0.2-9.9-0.5-14.7-1l0.7-26.9v0c5.7-3.5,10.6-8.2,13.7-14.2c0-0.1,0-0.2-0.1-0.2c0,0,0.1-0.1,0.1-0.2
			c0.4,1.6,1.6,2.7,3.2,3.1c0.1,0,0.2,0,0.3,0.1c0.1,0,0.2,0,0.2,0c0.3,0,0.5,0,0.7,0c0.7-0.1,1.1-0.4,1.8-0.5c0.1,0,0.2,0,0.3,0
			c0,0,0,0,0,0c0.1,0,0.2,0,0.3,0c0.5,0.1,0.9,0.3,1.4,0.5c0,0,0.1,0,0.1,0c0.1,0,0.2,0,0.3,0.1c0.1,0,0.3,0,0.4,0.1
			c0.2,0,0.3,0,0.5,0c0.2,0,0.4,0,0.5,0c1-0.1,1.7-0.5,2.3-0.6c0.1,0,0.2,0,0.2,0c0.1,0,0.2,0,0.4,0c0.1,0,0.2,0,0.3,0
			c0.5,0.1,0.9,0.3,1.4,0.5c0.1,0,0.2,0,0.3,0c0.2,0,0.4,0,0.6,0c0.1,0,0.1,0,0.2,0c0.1,0,0.1,0,0.2,0c1.7-0.2,3-1.7,3.5-3.3
			c0,0,0,0.1,0.1,0.1c0,0.1,0,0.1,0,0.2c7.1,13.8,22.9,20.6,38.4,22.3c0.2-0.7,0.5-1.4,0.7-2.1c0.2-0.6,0.4-1.2,0.5-1.8
			c0.3-1,0.6-2.1,0.9-3.1c0.2-0.6,0.3-1.2,0.5-1.8c0.1-0.6,0.3-1.1,0.4-1.7c0.1-0.5,0.2-0.9,0.3-1.4c0.1-0.5,0.2-0.9,0.3-1.4
			c0.1-0.7,0.3-1.3,0.4-2c0.1-0.7,0.2-1.3,0.3-1.9c0.1-0.7,0.2-1.3,0.3-2c0.1-0.7,0.2-1.3,0.2-2c0.1-0.7,0.1-1.3,0.2-1.9
			c0-0.5,0.1-1,0.1-1.5c0-0.3,0-0.7,0.1-1c0-0.5,0-0.9,0.1-1.4c0-0.9,0-1.9,0-2.8c0-0.3,0-0.7,0-1c0-0.9-0.1-1.7-0.1-2.6
			c0-0.6-0.1-1.1-0.1-1.7c-0.1-0.5-0.1-1.1-0.2-1.6c0-0.4-0.1-0.7-0.2-1.1c-0.1-0.5-0.2-1-0.2-1.5c-0.1-0.5-0.2-0.9-0.3-1.4
			c1.3-0.4,2.2-0.7,2.8-1c6.7-2.3,15.4-5.4,22.5-9.4c4.6-6.8,19.8-17.2,37.4-13.9c6.1,1.2,12.5,4,18.8,9.1
			C340.8,179.5,346.4,197.2,343.7,215.2z"/>
		<g>
			<path class="st3" d="M148.1,170.5c-3.7,6-5.5,15.8-6,20.1c-5.6-0.9-18.9-2.2-24.7-2.9c7.4-14.9,15.8-21,29.3-25.3
				c-0.1,1.7-1.2,5.1-1,5.5c0.2,0.3,1.8-2.2,2-1.9C148.5,166.6,148.1,168.8,148.1,170.5z"/>
			<path class="st4" d="M117.4,187.8c7.4-14.9,15.8-21,29.3-25.3"/>
		</g>
		<path class="st5" d="M216.5,271.3c-0.2-0.3-0.3-0.5-0.5-0.8"/>
		<g>
			<path class="st6" d="M134.5,92.2c2.5-10.1,8.7-21.4,17.7-23.1c10.6-2,19.4,6.6,29.6,6.1c1.9-0.1,5.6-1.2,6.7-2.9
				c1.1-1.6,0-3.8,0-3.8c1.6,0.5,3.2,2.8,5.2,3.4c7.7,2.2,15.6-4.5,22.6-6.6c23.2-7,41.3-4.5,53.6,17.9c2.8,5,7,16.5,4.1,29.4
				c-4.2,18.7-6.4,26.6-26.8,40.6c-24.1,16.7-74.1,24.9-99-6.6C136.7,131.9,129.9,111,134.5,92.2z"/>
			<g>
				<path class="st7" d="M181.2,100.7c-8.4-4.2-15.2,17.1-14.6,23.2c2.3,20.9,32.9,19.8,47.1,12.8c20.5-10.2-4.6-43.2-19.2-37.4"/>
				<path class="st7" d="M133.9,91.8c-3.4,13.4,1.3,33.7,4.8,36.3c2.7,2,17.6-3.5,28-19.3c7-10.5,9.3-25.9,6.8-28.6
					c-9.6-10.3-23.1-10.6-26.1-10C143.1,70.9,137,79.5,133.9,91.8z"/>
				<path class="st7" d="M207.6,75c3.8,49.3,55,65.7,60.9,57.2c3.8-5.5,11.8-30.8,2-48.1c-1-1.7-5.3-12.5-26.6-18.8
					C229.7,61.1,216.5,66,207.6,75z"/>
			</g>
		</g>
		<g>
			<line class="st8" x1="159.1" y1="167.2" x2="159" y2="174.1"/>
			<line class="st8" x1="165.9" y1="170.7" x2="165.9" y2="177.7"/>
		</g>
		<path class="st9" d="M126.2,256.7c-1.6,3.5,5.3-8.2,7.7-9.7c5-3.2,12.6-3.3,18.2-3.3c14.5,0,26.3,13.7,41.9,13.7
			c4,0,15.5-2.2,12-9.1c-1.9-3.8-11-2.9-14.5-2.9c-14.9,0-28.3-1.7-42.7-4.1c-3.5-0.6-11.8-0.6-14.7-5.9c-0.8-1.4-3.3,9.8-3.9,10.7
			C126.8,251,129,250.5,126.2,256.7z"/>
		<g>
			<path class="st4" d="M266.2,227.6c14.8-4.8,37.5-3.4,53.3,7.5"/>
			<g>
				<path class="st4" d="M277.7,226.9c-0.2,2-0.1,3.5,0.1,5.5"/>
				<line class="st4" x1="289.2" y1="226.9" x2="289.1" y2="231.6"/>
				<line class="st4" x1="297.2" y1="227.9" x2="296" y2="232.5"/>
			</g>
			<path class="st4" d="M267.8,205.4c1.3-4.2,3-9.2,2.9-13.6"/>
			<path class="st4" d="M263.2,190.2c2.9,7.1,5.7,16.7,4.7,24.6c-0.5,4.1-1.8,8.7-1.8,12.7"/>
			<path class="st4" d="M266.2,227.6c-3.3,6-5.5,9.7,2.6,12.2"/>
			<path class="st4" d="M316.8,312.1c5.3-15,7.3-28.2,8-41"/>
			<path class="st4" d="M148.1,182.4c48,13.8,96.8,4,102.2,1.2"/>
			<path class="st4" d="M310.3,161.5c-0.1-2.6,0-4.6,0-7.1c0-43.6-21.2-108.2-84-129.2c-11.9-4-22.9-7.1-26-9.9
				c-1.1,2.4,0,4.9,2.9,5.8c-13.4-0.2-24.2-4.4-30.4-10.6c-2.5,2.9-2.6,8.2,1.2,12.3c-9.1-3.8-20.4-3.9-28.5,2.7
				c5.3-0.8,12,0,12,2.5c0,2.1-14.9,0.9-20.4,9.8c6.1-2.3,13.6,0.4,13.5,1c-4,1-6.5,2.2-9.7,7.8c3.5-1.6,6.4-2.1,9.5-1.7
				c-5.6,3.8-9,9.9-12.8,15.2c-18.5,26.3-8.8,59.5,4.4,85.9c1.2,2.3,2.8,5,3.2,7.6c0.2,1.3-0.6,3.5,0,4.7c0.2,0.5,1.4-1.3,1.5-0.7
				c0.3,2.4,0,5.2-0.2,7.6c-0.1,0.9-1.1,3.3-0.5,2.7c0.2-0.2,0.8-2.3,1.7-2c0.5,0.2,0,13.2-0.2,14.5"/>
		</g>
		<g>
			<path class="st0" d="M162.8,90.6c0,13.2-25.5,13.7-26.8,1.9c-0.6-5.7,1.7-8.5,5.7-8.5C148.7,84,163.2,81.1,162.8,90.6z"/>
			<path class="st10" d="M162.8,90.6c0,13.2-25.5,13.7-26.8,1.9c-0.6-5.7,1.7-8.3,5.7-8.5C148.7,83.7,163.2,81.1,162.8,90.6z"/>
			<path class="st11" d="M144.7,91.1c0-2.6,2.1-4.7,4.7-4.7c2.6,0,4.7,2.1,4.7,4.7c0,2.6-2.1,4.7-4.7,4.7
				C146.8,95.8,144.7,93.7,144.7,91.1z"/>
		</g>
		<g>
			<path class="st0" d="M255.6,89.1c-1.4,11.8-30.7,14.3-31-1.2c-0.1-6.2,9.5-6.9,20.1-8C255.1,78.9,256.5,81.1,255.6,89.1z"/>
			<path class="st10" d="M255.6,89.1c-0.9,11.8-30.7,14.3-31-1.2c-0.1-6.2,9.2-6.8,20.1-8C253.6,79,256.2,81.2,255.6,89.1z"/>
			<path class="st11" d="M235.4,88c0.3-2.6,2.5-4.5,5.1-4.2c2.6,0.3,4.5,2.5,4.2,5.1c-0.3,2.6-2.5,4.5-5.1,4.2
				C237,92.9,235.2,90.6,235.4,88z"/>
		</g>
		<g>
			<path class="st10" d="M190.4,106.8c0,4,0,7.5,0,9.4c0,4.5,6.9,12.4,17.2,5.3"/>
			<path class="st10" d="M187.1,122.4c-2.7,2.4-7,3.4-12.1-1.7"/>
			<path class="st12" d="M176.2,100.8c-0.2-3.2,6.1-6,13.9-6.4c7.8-0.4,14.3,1.9,14.4,5c0.2,3.2-6.1,6-13.9,6.4
				C182.8,106.2,176.3,103.9,176.2,100.8z"/>
		</g>
		<g>
			<path class="st13" d="M209,78.7c18.4-18.5,42.1-16.7,66.1,2.7"/>
			<path class="st13" d="M172,80.4c-18.1-16.1-34.1-14-50.7,9.7"/>
		</g>
		<g>
			<path class="st13" d="M173.3,88.4c7.8-7.1,24.6-8.7,34.3-3.3"/>
			<g>
				<path class="st14" d="M173.3,88.4c0,16.5-13.4,29.9-29.9,29.9c-0.3,0-0.5,0-0.8,0c-2.4,0-4.7-0.4-6.9-1
					c-1.2-0.3-2.4-0.7-3.5-1.2c-4.6-1.9-8.7-4.9-11.8-8.7c-4.3-5.2-6.9-11.8-6.9-19c0-15.7,12.1-28.6,27.5-29.8
					c0.8-0.1,1.6-0.1,2.3-0.1c4.3,0,8.4,0.9,12.1,2.6c1.1,0.5,2.2,1.1,3.3,1.7c2,1.2,3.9,2.6,5.5,4.3
					C169.8,72.5,173.3,80.1,173.3,88.4z"/>
				<linearGradient id="SVGID_1_" gradientUnits="userSpaceOnUse" x1="130.4727" y1="82.9981" x2="143.1715" y2="88.3554">
					<stop  offset="0" style="stop-color:#FFFFFF;stop-opacity:0.2"/>
					<stop  offset="1" style="stop-color:#FFFFFF;stop-opacity:0"/>
				</linearGradient>
				<path class="st15" d="M155.5,61.1l-23.3,55c-4.6-1.9-8.7-4.9-11.8-8.7L141,58.7c0.8-0.1,1.6-0.1,2.3-0.1
					C147.7,58.6,151.8,59.5,155.5,61.1z"/>

					<linearGradient id="SVGID_00000022538696404746883990000009612437088180190336_" gradientUnits="userSpaceOnUse" x1="147.2822" y1="90.0977" x2="153.1355" y2="92.5779">
					<stop  offset="5.586592e-03" style="stop-color:#FFFFFF;stop-opacity:0"/>
					<stop  offset="1" style="stop-color:#FFFFFF;stop-opacity:0.2"/>
				</linearGradient>
				<path style="fill:url(#SVGID_00000022538696404746883990000009612437088180190336_);" d="M164.3,67.1l-21.7,51.2
					c-2.4,0-4.7-0.4-6.9-1l23.1-54.5C160.8,64,162.6,65.5,164.3,67.1z"/>
			</g>
			<g>
				<path class="st14" d="M267.3,85.1c0,16.5-13.4,29.9-29.9,29.9c-1.2,0-2.4-0.1-3.6-0.2c-2.3-0.3-4.5-0.8-6.6-1.6
					c-1.2-0.4-2.3-0.9-3.4-1.5c-4.6-2.3-8.5-5.8-11.3-10c-3.2-4.7-5-10.5-5-16.6c0-14.7,10.5-26.8,24.5-29.4
					c1.7-0.3,3.6-0.5,5.4-0.5c3.4,0,6.6,0.6,9.7,1.6c1.2,0.4,2.3,0.9,3.4,1.4c2.1,1,4,2.2,5.7,3.7C263,67.4,267.3,75.7,267.3,85.1z"
					/>
				<g>

						<linearGradient id="SVGID_00000020389632567226369420000011615424733906304678_" gradientUnits="userSpaceOnUse" x1="222.1042" y1="78.6249" x2="234.8033" y2="83.9823">
						<stop  offset="0" style="stop-color:#FFFFFF;stop-opacity:0.2"/>
						<stop  offset="1" style="stop-color:#FFFFFF;stop-opacity:0"/>
					</linearGradient>
					<path style="fill:url(#SVGID_00000020389632567226369420000011615424733906304678_);" d="M247.1,56.8l-23.2,54.9
						c-4.6-2.3-8.5-5.8-11.3-10l19.5-46c1.7-0.3,3.6-0.5,5.4-0.5C240.8,55.2,244.1,55.8,247.1,56.8z"/>

						<linearGradient id="SVGID_00000053519810107744708190000015177126896290441378_" gradientUnits="userSpaceOnUse" x1="238.9215" y1="85.7217" x2="244.7562" y2="88.194">
						<stop  offset="0" style="stop-color:#FFFFFF;stop-opacity:0"/>
						<stop  offset="1" style="stop-color:#FFFFFF;stop-opacity:0.2"/>
					</linearGradient>
					<path style="fill:url(#SVGID_00000053519810107744708190000015177126896290441378_);" d="M256.3,61.9l-22.4,52.9
						c-2.3-0.3-4.5-0.8-6.6-1.6l23.3-55C252.6,59.2,254.5,60.5,256.3,61.9z"/>
				</g>
			</g>
			<circle class="st13" cx="143.4" cy="88.4" r="29.9"/>
			<circle class="st13" cx="237.5" cy="85.1" r="29.9"/>
		</g>
		<g>
			<line class="st8" x1="298.7" y1="254.6" x2="298.6" y2="261.6"/>
			<line class="st8" x1="306.8" y1="257.1" x2="306.8" y2="264.1"/>
		</g>
		<g>
			<g>
				<g>
					<g>
						<path class="st19" d="M205.1,202.5c-0.5,1.7-1.8,3.2-3.5,3.4c-1.7,0.2-2.1-0.5-3.3-0.5c-0.8,0-1.5,0.7-3,0.7
							c-1.8,0-2.1-0.7-3.2-0.7c-1.3,0-1.6,0.9-3.4,0.4c-1.7-0.4-2.8-1.5-3.3-3.2c-0.2-0.7-0.2-1.4-0.1-2.3c0.4-3.2,0.5-5.7,0.2-10.2
							c0-0.5,0-1.1,0.1-1.6v0c0.3-1.7,1.3-3.4,3.1-3.8c1.8-0.4,2.1,0.4,3.4,0.4c1,0,1.4-0.7,3.2-0.7c1.5,0,2.2,0.7,3,0.7
							c1.2,0,1.6-0.8,3.3-0.5c2,0.3,3.2,2.1,3.5,4c0.1,0.5,0.1,1,0.1,1.5c-0.3,3.4-0.5,6.4,0.1,10.3
							C205.4,201,205.4,201.8,205.1,202.5z"/>
						<path class="st19" d="M243.6,224.9c-15.5-1.7-31.3-8.5-38.4-22.4c0.2-0.7,0.3-1.5,0.2-2.2c-0.6-3.8-0.4-6.8-0.1-10.3
							c0-0.5,0-1-0.1-1.5c8.5-4.7,19.8-17.8,35.4-21.2C251.6,184.4,250.1,205.4,243.6,224.9z"/>
						<path class="st19" d="M185.5,202.6c-7.1,13.8-23.1,20.6-38.5,22.3c-6.5-19.5-8-40.5,3-57.6c15.5,3.4,27.2,16.5,35.7,21.2v0
							c-0.1,0.5-0.1,1.1-0.1,1.6c0.3,4.5,0.2,7-0.2,10.2C185.2,201.2,185.3,201.9,185.5,202.6z"/>
					</g>
				</g>
				<path class="st9" d="M192.4,189c-2.6,3-3,9.9,0,12.5C191.9,196.3,193.5,192.9,192.4,189z"/>
				<path class="st9" d="M197.1,189c2.6,3,3,9.9,0,12.5C197.6,196.3,196,192.9,197.1,189z"/>
			</g>
			<path class="st20" d="M185.6,195.5c-0.6-2.8-3.5-4.5-7.7-7.3c-4.2-2.8-11.1-10.1-18.2-13.5c-7.1-3.4-12.5-1.4-14.5,1.8
				c1.2-2.8,3.1-6.4,4.6-9.2c6.9,1.7,14.3,5.4,20.4,10.1c6.1,4.7,12.7,9.4,14.4,10.7C185.5,189.5,185.7,192.1,185.6,195.5z"/>
			<path class="st20" d="M205.1,193.7c0.1-1.4,6.2-3.9,9.4-6c2.5-1.6,10.1-8.1,17.1-11.2c6.2-2.8,12-2.7,13.4,0
				c-0.9-2.8-3-7.3-4.6-9.2c-9.1,2.3-16.2,6.8-23.5,12.5c-7.4,5.7-10.7,8-12.5,8.6C205.2,190,204.9,192.2,205.1,193.7z"/>
			<path class="st9" d="M227.3,188.2c0.7,1.2,0.3,2.2-1.7,2.4c-2,0.2-4.3,0.7-6.5,2.2c-3,2-5.3,3-7.9,3c2.3,1,5.5,2.2,7.9,3.8
				c2.9,1.9,3.7,4.4,5.7,5.2c2,0.8,4.2-0.3,5.2,1.9c0.7,1.6-2,4.1-5.8,2.1c-3.9-1.9-6-4.7-8.1-6.2s-7.4-4.1-10.2-4.6
				c-2.7-0.5-2.6-3.8-0.6-3.9c2-0.1,5.5-0.7,7.9-1.8c2.8-1.3,4.8-2.9,7.4-4.2S226.3,186.4,227.3,188.2z"/>
			<path class="st9" d="M162,186.7c-0.8,2.3,1.7,1.5,3.9,2.3c2.2,0.8,4.5,2.5,7.7,4.6c3.2,2,3.8,2.1,7,2.4c3.2,0.4,2.8-0.5,0-1.9
				c-2.8-1.4-4.4-1.7-7.3-4.5c-2.9-2.8-6.2-4.7-8.7-4.2C162.2,185.8,162,186.7,162,186.7z"/>
			<path class="st9" d="M158.7,202.2c-2.9-1.8-0.7-6.1,2.3-5c3.1,1.1,7.1,1.1,11.1,0.4c4-0.7,7.5-2,13.5-1.8
				c-0.1,1.4,0.6,2.4-3.6,2.6s-10.2,4-13.8,4.5C164.7,203.5,161.2,203.7,158.7,202.2z"/>
			<path class="st9" d="M243.5,225.2c-15.5-1.7-31.3-8.5-38.4-22.3c0.2-0.7,0.3-1.5,0.2-2.2c-0.1-0.3-0.1-0.7-0.1-1
				c5.5,4.8,12,9.4,20.1,13.4c9.3,4.6,16.1,6.2,18.5,0c2.4-6.2,4.2-10.7,4.8-19.7C249.1,203.9,247,214.8,243.5,225.2z"/>
			<path class="st9" d="M185.4,203.1c-7.2,13.7-23.1,20.5-38.5,22.2v0c-2.7-7.9-4.5-16.1-5-24.1c2,7.1,6.1,12.4,8.3,14.4
				c2.5,2.4,13.6-1.2,20.2-5.8c5.6-3.8,9.6-7.3,13.6-11c0.5-0.5,1-1,1.6-1.5c-0.1,1.2-0.2,2.3-0.3,3.5
				C185.1,201.6,185.2,202.4,185.4,203.1z"/>
		</g>
		<g>
			<path class="st4" d="M205.1,190c-0.3,3.4-0.5,6.4,0.1,10.3c0.4,2.3-1.1,5.3-3.7,5.6c-1.7,0.2-2.1-0.5-3.3-0.5
				c-0.8,0-1.5,0.7-3,0.7c-1.8,0-2.1-0.7-3.2-0.7c-1.3,0-1.6,0.9-3.4,0.4c-2.4-0.5-3.7-2.6-3.4-5.4c0.4-3.2,0.5-5.7,0.2-10.2
				c-0.2-2.2,0.8-4.9,3.2-5.4c1.8-0.4,2.1,0.4,3.4,0.4c1,0,1.4-0.7,3.2-0.7c1.5,0,2.2,0.7,3,0.7c1.2,0,1.6-0.8,3.3-0.5
				C204.1,184.9,205.4,187.7,205.1,190z"/>
			<path class="st4" d="M205.1,188.5c8.5-4.7,19.8-17.8,35.4-21.2c11,17.2,9.5,38.1,3,57.6c-15.5-1.7-31.3-8.5-38.4-22.4"/>
			<path class="st4" d="M185.3,188.5c-8.5-4.7-19.8-17.8-35.4-21.2c-11,17.2-9.5,38.1-3,57.6c15.5-1.7,31.3-8.5,38.4-22.4"/>
			<path class="st4" d="M204.9,194.2c4.5,0.2,9-1.6,13.8-5c4.7-3.4,8.2-2.5,8.8-0.6"/>
			<path class="st4" d="M205.1,198.1c4.7,0.3,10.2,3.3,14,7.2c5.5,5.7,10.7,4.4,10.7,1.7"/>
			<path class="st4" d="M185.2,198.4c-4.5-0.5-8.2,1.5-15.5,4.1c-5.5,2-11.1,0.8-11.6-1.2"/>
			<path class="st4" d="M185.3,194.9c-4.7-0.3-8.9-1.6-12.4-5.1c-5.5-5.6-10.9-5.3-10.9-2.6"/>
		</g>
		<g>
			<path class="st21" d="M231,263.7c-15.4,11.7-50.8,38.6-61.5,46.7c-3.4,2.5-7.7,2.2-12.8,0.9c0,0,0.1,0,0.2,0
				c6.4,1.3,12.4-3.5,12.6-10c0,0,0-0.1,0-0.1c0-0.1,0-0.2,0-0.3l1.4-52.9l58.5,8.6C232.7,257.2,233.7,261.6,231,263.7z"/>
			<g>
				<polygon class="st22" points="165.8,290.4 156.9,288.8 162.7,284.3 171.6,285.9 				"/>
				<polygon class="st22" points="164.7,272.4 174.2,274.1 169,278.1 159.5,276.3 				"/>
				<polygon class="st22" points="166.1,291.6 174.2,293.1 161.2,303.1 153.3,301.4 				"/>
				<polygon class="st22" points="172.9,285 164,283.4 169.3,279.3 178.2,280.9 				"/>
				<polygon class="st22" points="175.5,273.2 165.9,271.5 171.4,267.3 181,269 				"/>
				<polygon class="st22" points="173.2,286.2 181.3,287.7 175.5,292.1 167.4,290.6 				"/>
				<polygon class="st22" points="179.5,280 170.6,278.4 175.8,274.4 184.7,276 				"/>
				<polygon class="st22" points="172.7,266.3 177.4,262.7 187,264.5 182.3,268 				"/>
				<polygon class="st22" points="161.9,264.2 166.7,260.6 176.2,262.4 171.5,266 				"/>
				<polygon class="st22" points="179.8,281.2 187.8,282.7 182.5,286.7 174.4,285.3 				"/>
				<polygon class="st22" points="185.9,275.1 177,273.5 182.6,269.3 191.5,270.9 				"/>
				<polygon class="st22" points="186.2,276.3 194.2,277.8 189.1,281.7 181,280.3 				"/>
				<polygon class="st22" points="183.8,268.3 188.5,264.7 197.4,266.4 192.7,269.9 				"/>
				<polygon class="st22" points="193,271.1 201,272.6 195.5,276.8 187.5,275.4 				"/>
				<polygon class="st22" points="206.8,268.1 202.2,271.6 194.3,270.2 198.9,266.6 				"/>
			</g>
			<polygon class="st23" points="188.8,250.6 176.1,259.3 170.5,258.3 170.8,248 			"/>
			<path class="st21" d="M17.7,175.1l146.2,18.5c4.5,0.6,8.2,4.7,8.2,9.3l-2.7,98.5c-0.2,6.6-6.3,11.4-12.7,10L25.3,282.6
				c-4.5-1-7.9-4.8-8.2-9.4l-7-90.8C9.8,177.8,13.2,174.5,17.7,175.1z"/>
			<g>
				<path class="st24" d="M170.8,248l-1.4,52.9c0,0.1,0,0.2,0,0.3L170.8,248z"/>
			</g>
			<path class="st9" d="M169.4,299.5c0,9.6-7.4,13-12.8,11.9L25.3,282.6c-4.5-1-7.9-4.8-8.2-9.4l-7-90.8c-0.2-3.5,1.8-9.2,12.2-6.7
				c-7.4,1.1-6.9,7.6-6.9,7.6l6.5,84.3c0.3,4.6,3.7,8.5,8.2,9.4l131.4,28.7C164.1,306.3,167.6,304.6,169.4,299.5z"/>
			<path class="st9" d="M231,263.5c-15.4,11.7-50.8,38.6-61.5,46.7c-3.4,2.5-7.7,2.2-12.8,0.9c0,0,0.1,0,0.2,0
				c5.4,1.1,10.5-2.1,12.1-7.1l57.7-43.5c1.2-0.9,1.8-4.4-0.5-4.7l3.3,0.5C232.7,257,233.7,261.4,231,263.5z"/>
			<path class="st20" d="M172,202.9l-2.7,98.4c-0.1,4.8-3.4-93.8-3.4-93.8c0-4.5-3.6-8.7-8.2-9.3c0,0-143.7-23.7-140.1-23.2
				l146.2,18.5C168.4,194.2,172,198.4,172,202.9z"/>
			<g>
				<path class="st24" d="M17.7,175.1l146.2,18.5c4.5,0.6,8.2,4.7,8.2,9.3l-2.6,98c-0.2,6.8-6.5,11.8-13.2,10.3L25.6,282.6
					c-4.7-1-8.1-5-8.5-9.8l-7-90.6C9.8,177.8,13.2,174.5,17.7,175.1z"/>
				<line class="st25" x1="170.4" y1="303.1" x2="226.5" y2="260.8"/>
				<path class="st25" d="M156.7,311.3c5.1,1.2,9.4,1.6,12.8-0.9c10.7-8.1,46.2-35,61.5-46.7c2.8-2.1,1.7-6.5-1.7-7.1l-58.5-8.6"/>
				<polyline class="st25" points="188.8,250.6 176.1,259.3 170.5,258.3 				"/>
			</g>
			<g>
				<g>
					<path d="M68.2,224.1c3.8,0.7,7.5,1.3,11.2,2.1c3.1,0.6,4.3,3.3,4.6,5.7c0.4,3.3-0.7,5.4-3.2,6.2c-0.1,0-0.3,0.1-0.5,0.1
						c3.2,2.5,3.8,6.7,5.8,10.4c-2.2-0.3-4.1-0.6-6.1-0.9c-1.1-2.4-2.2-4.8-3.3-7.2c-0.6-1.3-1.3-2.4-2.8-2.2
						c0.1,2.8,0.3,5.7,0.5,8.6c-1.8-0.3-3.5-0.5-5.2-0.8C68.8,238.7,68.7,231.6,68.2,224.1z M73.8,229.5c0.1,1.5,0.1,2.8,0.2,4.5
						c1.1,0.1,2.3,0.3,3.4,0.3c1,0,1.5-0.7,1.4-1.8c0-1.1-0.6-2.1-1.7-2.4C76,229.7,74.9,229.7,73.8,229.5z"/>
					<path d="M100.5,235.2c-1.7-0.1-3.3-0.2-4.9-0.3c-0.3-1.9-1.2-3-2.7-3.2c-0.9-0.2-1.7,0.1-2,1.3c0.1,1.1,0.7,1.5,1.4,1.8
						c1.3,0.6,2.5,1.2,3.8,1.8c0.7,0.3,1.4,0.8,2,1.2c4.2,3,4,9.1,1.2,11.4c-0.9,0.7-2.1,1.2-3.3,1.2c-1.9,0.1-3.9-0.3-5.8-1.2
						c-2.6-1.2-4.4-4.2-4.6-7.7c1.6,0.1,3.2,0.3,4.9,0.4c0.1,0.4,0.2,0.9,0.3,1.2c0.7,2.2,2.5,3.4,4.1,2.8c0.7-0.2,1.2-0.8,1.2-1.8
						c0-0.9-0.5-1.7-1.1-2.1c-0.6-0.4-1.2-0.7-1.8-1c-1.2-0.7-2.5-1.2-3.7-2c-2.3-1.5-3.6-3.8-3.5-6.2c0-2.7,1.3-4.7,3.7-5.1
						c2.2-0.4,4.5-0.1,6.9,1.1C98.9,230,100.1,231.9,100.5,235.2z"/>
				</g>
			</g>
		</g>
		<path class="st2" d="M253.1,240.1c-4.7-2.6-9.7-4.7-15-6c-18.8-4.4-34.9-1.5-48.1,7.8c-1.4,1-2.8,2-4.1,3.1
			c-1.6,1.3-3.2,2.8-4.7,4.3l0,0c-1.1,1.1-2.2,2.2-3.2,3.4c-1.6,1.8-3.1,3.8-4.6,5.8c-0.6,0.9-1.3,1.8-1.9,2.7
			c-0.3,0.4-0.5,0.8-0.8,1.2l-0.1,3.1l0,0.3l0,0.9l0,1.1l-0.1,3.2l0,0.9l0,0.9l0,0.3l-0.1,3.9v0l0,0.9l0,0.5l0,0.7l-0.1,5v0.1
			c9.6-5.4,16.7-11.4,20.8-16.5c4.5-5.7,12.9-13.1,27.8-13l8.5,1.2l2.4,0.3c0.2,0,0.4,0.1,0.6,0.2c0.2,0.1,0.3,0.1,0.5,0.2
			c1.4,0.7,2.2,2.1,2.2,3.5c0,1.2-0.5,2.4-1.6,3.3c-0.4,0.3-0.9,0.7-1.3,1c0.5,1.2,1,2.5,1.6,3.9c2,4.8,4.8,10.7,8.2,16.7
			C250.7,273.4,256,256.1,253.1,240.1z"/>
		<path class="st5" d="M182.3,248.1c-1.8,1.5-4.2,4.5-4.3,4.7c-1.6,1.8-3.1,3.8-4.6,5.8c-0.6,0.9-1.3,1.8-1.9,2.7
			c-0.3,0.4-0.5,0.8-0.8,1.2l-0.1,3.1l0,0.3l0,0.9l0,1.1l-0.1,3.2l0,0.9l0,0.9l0,0.3l-0.1,3.9v0l0,0.9l0,0.5l0,0.7l-0.1,5v0.1
			c9.6-5.4,16.7-11.4,20.8-16.5c0.5-0.6,3-3.8,5.4-5.6C193.1,256.6,188,251.7,182.3,248.1z"/>
		<g>
			<path class="st4" d="M182.3,248.4c4.4,2.4,11,8.2,13.9,13.9"/>
			<path class="st4" d="M187.5,252.1c-5.2,5.7-13.5,16.2-17.2,25.2"/>
			<path class="st4" d="M156.7,311.3c5.1,1.2,9.4,1.6,12.8-0.9c10.7-8.1,46.2-35,61.5-46.7c2.8-2.1,1.7-6.5-1.7-7.1l-10.8-1.6"/>
			<path class="st4" d="M169.8,284.6c9.6-5.5,16.7-11.4,20.8-16.6c4.5-5.7,13.2-13.1,28.1-13.1"/>
			<path class="st4" d="M170.4,262.7c5.6-8.8,12-15.5,19.3-20.6c13.2-9.3,29.4-12.2,48.1-7.8c21.7,5.1,39.4,24.7,45.5,36.7"/>
			<path class="st4" d="M272.8,174.2c6.3-8.1,31.6-24.9,56.3-4.7c11.8,9.6,17.4,27.3,14.7,45.2c-2.7,17.9-3.7,24.1-5.2,31.9
				c-0.8,4.3-4.2,12.1-9.2,7.3c-5,21.7-17.3,61.7-49,62.7c-27.8,0.9-44.3-36.4-50.4-51.8"/>
			<path class="st4" d="M267.1,239.1c-0.5,1.1-2.6,6.1-2.6,9.1"/>
		</g>
		<g>
			<path class="st9" d="M324.7,271.2c-0.7,12.8-2.7,26-7.9,41h-20.2C311.3,304,319.7,286.6,324.7,271.2z"/>
			<path class="st9" d="M231.5,268.6c3.1,16.8,5.2,24.5,9.7,32.4c3.1,5.5,4.3,10-1.3,11.3c6.4,0,16.1,0,23.8,0
				C252,306.1,239.6,290.4,231.5,268.6z"/>
			<path class="st9" d="M251.8,206.9c-1.5,13.2-6.4,24.1-9.7,27.5c-20.2-4.8-30.1-14.3-37.6-26.8c-4.5,4.5-15.5,3.6-18.9,0
				c-1.1,3.6-6,11.3-14.1,16.5l0-6.4v0c5.7-3.5,10.6-8.2,13.7-14.2c0-0.1,0-0.2-0.1-0.2c0,0,0.1-0.1,0.1-0.2
				c0.4,1.6,1.6,2.7,3.2,3.1c0.1,0,0.2,0,0.3,0.1c0.1,0,0.2,0,0.2,0c0.3,0,0.5,0,0.7,0c0.7-0.1,1.1-0.4,1.8-0.5c0.1,0,0.2,0,0.3,0
				c0,0,0,0,0,0c0.1,0,0.2,0,0.3,0c0.5,0.1,0.9,0.3,1.4,0.5c0,0,0.1,0,0.1,0c0.1,0,0.2,0,0.3,0.1c0.1,0,0.3,0,0.4,0.1
				c0.2,0,0.3,0,0.5,0c0.2,0,0.4,0,0.5,0c1-0.1,1.7-0.5,2.3-0.6c0.1,0,0.2,0,0.2,0c0.1,0,0.2,0,0.4,0c0.1,0,0.2,0,0.3,0
				c0.5,0.1,0.9,0.3,1.4,0.5c0.1,0,0.2,0,0.3,0c0.2,0,0.4,0,0.6,0c0.1,0,0.1,0,0.2,0c0.1,0,0.1,0,0.2,0c1.7-0.2,3-1.7,3.5-3.3
				c0,0,0,0.1,0.1,0.1c0,0.1,0,0.1,0,0.2c7.1,13.8,22.9,20.6,38.4,22.3c0.2-0.7,0.5-1.4,0.7-2.1c0.2-0.6,0.4-1.2,0.5-1.8
				c0.3-1,0.6-2.1,0.9-3.1c0.2-0.6,0.3-1.2,0.5-1.8c0.1-0.6,0.3-1.1,0.4-1.7c0.1-0.5,0.2-0.9,0.3-1.4c0.1-0.5,0.2-0.9,0.3-1.4
				c0.1-0.7,0.3-1.3,0.4-2c0.1-0.7,0.2-1.3,0.3-1.9c0.1-0.7,0.2-1.3,0.3-2c0.1-0.7,0.2-1.3,0.2-2c0.1-0.7,0.1-1.3,0.2-1.9
				c0-0.5,0.1-1,0.1-1.5c0-0.3,0-0.7,0.1-1c0-0.5,0-0.9,0.1-1.4c0-0.9,0-1.9,0-2.8c0-0.3,0-0.7,0-1c0-0.9-0.1-1.7-0.1-2.6
				c0-0.6-0.1-1.1-0.1-1.7c-0.1-0.5-0.1-1.1-0.2-1.6c0-0.4-0.1-0.7-0.2-1.1c-0.1-0.5-0.2-1-0.2-1.5c-0.1-0.5-0.2-0.9-0.3-1.4
				c1.2-0.3,2.1-0.7,2.7-0.9C252.1,191.7,252.7,198.3,251.8,206.9z"/>
			<path class="st9" d="M310.3,160.4c-7.6-1.3-14.7-0.1-20.7,2.2c-0.2-27.5-3.6-53.9-14.3-73.8c-13-24-33.1-42.2-61.5-46.5
				c-1.4-0.2-4.6-1.5-3.7-3.9c-3.5,0-3.9,3.1-5.5,3c-1.1,0-5.5-2.2-2.2-8.8c-9.7,2.3-7.8,8.8-11,9c-1.3,0.1-1.9-6-9.5-6.8
				c2.6,2.6,3.3,7.3,2.1,7.4c-1.6,0.2-3.1-3.3-7.3-2.9c1.7,1.9-1.1,4.2-2.9,4.6c-18.4,4.2-30.8,12.8-40,23c1.3-2.7,2.9-5.4,4.7-8.1
				c3.5-5.1,6.8-10.7,12-14.2c-3.1-0.4-6,0.1-9.5,1.7c3.2-5.6,5.7-6.8,9.7-7.8c0.1-0.6-7.4-3.3-13.5-1c5.5-8.9,20.4-7.7,20.4-9.8
				c0-2.5-6.7-3.3-12-2.4c8-6.6,19.3-6.5,28.5-2.7c-3.8-4-3.7-9.4-1.2-12.3c6.2,6.1,17.1,10.4,30.4,10.5c-2.8-0.9-4-3.4-2.8-5.8
				c3,2.7,14.1,5.9,26,9.9c62.8,21,84,85.6,84,129.2C310.3,156.5,310.3,158.3,310.3,160.4z"/>
			<path class="st9" d="M263.2,190.8c1.4,6.9-0.2,21.8-2.3,27.8c-2.1,6.1-5.2,15.4-12.3,19.1c2,1,11.3,6.4,15.9,10.5
				c0.3-2.3,1.5-6,2.3-8.5c-2.1-1.5-4.1-3.1-3.6-6.1c0.5-2.9,2.5-4.7,3-6.8c0.5-2.1,1.4-8.3,1.9-12.8S267.6,198.9,263.2,190.8z"/>
			<path class="st9" d="M343.7,215.2c-2.7,18-3.7,24.1-5.2,31.9c-0.8,4.3-4.2,12.1-9.2,7.3c-4.9-2.3-9.6-4.2-14.1-5.7
				c0,0-0.1,0-0.1-0.1c2.9-0.1,5.2-2.6,6-4.8c0.8-2.2,1.3-6.8,0.1-8.1c1.1-3,3.1-9,5.5-22.1c2.4-13.1,1.2-32.4-5.9-41.7
				c-7.4-9.7-20.7-12.9-32.2-8.9c6.2-2.5,13.7-3.8,21.6-2.3c6.1,1.2,12.5,4,18.8,9.1C340.8,179.5,346.4,197.2,343.7,215.2z"/>
			<path class="st9" d="M329.3,254.4C329.3,254.4,329.3,254.4,329.3,254.4c-3.9,17.1-12.4,45.1-31.1,56.8c-5.1,3.2-11,5.2-17.8,5.4
				c-6.8,0.2-13-1.9-18.4-5.4c-16.9-10.8-27.7-34.9-32.3-46.5c0.5-0.3,0.9-0.7,1.3-1c0.1-0.1,0.3-0.2,0.4-0.3
				c0.1-0.1,0.2-0.2,0.3-0.3c0.6-0.8,0.9-1.7,0.9-2.6c0-1.3-0.5-2.5-1.6-3.3c0,0,0,0-0.1,0c-0.5-0.3-1-0.6-1.6-0.7l-3.3-0.5
				c0.2,0,0.4,0.1,0.6,0.2c0.1,0,0.2,0.1,0.3,0.2l-8.5-1.2l-0.5-0.1c-14.4,0.2-22.6,7.5-27,13c-4.1,5.2-11.1,11.1-20.8,16.5v-0.1
				l0.1-5l0-0.7l0-0.5l0-0.9v0c10.4-6,19.3-17,26.4-22.5c0.5-0.4,1-0.7,1.4-1c7.6-5.1,23.9-13.3,35.8-5.5
				c7.1,4.6,1.7,18.6,14.8,38.5c12,18.3,29.8,22.8,39.7,16.4c10.2-6.6,22.7-25,28.1-54C321.1,250.7,324.2,252,329.3,254.4z"/>
		</g>
	</g>
</g>
</svg>
